<?xml version="1.0" encoding="UTF-8" standalone="no"?>
<svg
   id="uuid-cea820c2-b77e-4641-babb-398932b5cba6"
   data-name="svg515"
   width="595.276"
   height="337.056"
   viewBox="0 0 595.276 337.056"
   version="1.1"
   sodipodi:docname="architectural-overview.svg"
   inkscape:version="1.3.2 (091e20e, 2023-11-25)"
   xmlns:inkscape="http://www.inkscape.org/namespaces/inkscape"
   xmlns:sodipodi="http://sodipodi.sourceforge.net/DTD/sodipodi-0.dtd"
   xmlns="http://www.w3.org/2000/svg"
   xmlns:svg="http://www.w3.org/2000/svg"
   xmlns:rdf="http://www.w3.org/1999/02/22-rdf-syntax-ns#"
   xmlns:cc="http://creativecommons.org/ns#"
   xmlns:dc="http://purl.org/dc/elements/1.1/">
  <sodipodi:namedview
     id="namedview49"
     pagecolor="#ffffff"
     bordercolor="#666666"
     borderopacity="1.0"
     inkscape:showpageshadow="2"
     inkscape:pageopacity="0.0"
     inkscape:pagecheckerboard="0"
     inkscape:deskcolor="#d1d1d1"
     inkscape:zoom="1.4497477"
     inkscape:cx="297.98289"
     inkscape:cy="168.65004"
     inkscape:window-width="720"
     inkscape:window-height="480"
     inkscape:window-x="0"
     inkscape:window-y="25"
     inkscape:window-maximized="0"
     inkscape:current-layer="uuid-cea820c2-b77e-4641-babb-398932b5cba6" />
  <defs
     id="defs1">
    <style
       id="style1">
      .uuid-4427e8ae-2d69-4269-993d-4b45bb9f54f9 {
        stroke-dasharray: 0 0 2.816 2.816;
      }

      .uuid-4427e8ae-2d69-4269-993d-4b45bb9f54f9, .uuid-47b835e3-f73e-4b56-a820-148effc37007, .uuid-734eb5e7-a9a2-4143-b9ae-fb0ffb59897b, .uuid-28990999-d204-4094-ad95-e0a4ddd3deb6, .uuid-6bb9a5dc-f4ff-460b-ae14-cc35cadd54a7 {
        fill: none;
      }

      .uuid-4427e8ae-2d69-4269-993d-4b45bb9f54f9, .uuid-47b835e3-f73e-4b56-a820-148effc37007, .uuid-28990999-d204-4094-ad95-e0a4ddd3deb6, .uuid-6bb9a5dc-f4ff-460b-ae14-cc35cadd54a7 {
        stroke: #a0a0a0;
        stroke-linecap: round;
        stroke-linejoin: round;
      }

      .uuid-734eb5e7-a9a2-4143-b9ae-fb0ffb59897b {
        stroke: #161616;
        stroke-miterlimit: 10;
      }

      .uuid-75be3201-1695-453d-ae1c-e1df66bc56d8 {
        fill: #a2a2a2;
      }

      .uuid-75be3201-1695-453d-ae1c-e1df66bc56d8, .uuid-7ea1e125-09ed-44ab-840c-e34b6a14b892, .uuid-9fbee232-a6ed-43f0-9195-705fad50746f, .uuid-836921ed-2b67-4e10-9e94-1860f36f63a9, .uuid-c7b81af3-68d9-4256-8713-5c701862f09f, .uuid-0433d4fa-df47-47ae-aa65-14cd4a96cde6, .uuid-c1e42026-d7e6-4069-b182-e910ca88404c {
        stroke-width: 0px;
      }

      .uuid-7ea1e125-09ed-44ab-840c-e34b6a14b892 {
        fill: #d9e8f7;
      }

      .uuid-9fbee232-a6ed-43f0-9195-705fad50746f {
        fill: #000;
      }

      .uuid-836921ed-2b67-4e10-9e94-1860f36f63a9 {
        fill: #e8e8e8;
      }

      .uuid-c7b81af3-68d9-4256-8713-5c701862f09f {
        fill: #161616;
      }

      .uuid-28990999-d204-4094-ad95-e0a4ddd3deb6 {
        stroke-dasharray: 0 0 3.019 3.019;
      }

      .uuid-0433d4fa-df47-47ae-aa65-14cd4a96cde6 {
        fill: #06c;
      }

      .uuid-6bb9a5dc-f4ff-460b-ae14-cc35cadd54a7 {
        stroke-dasharray: 0 0 2.994 2.994;
      }

      .uuid-c1e42026-d7e6-4069-b182-e910ca88404c {
        fill: #fff;
      }
    </style>
  </defs>
  <rect
     id="uuid-ae911a1f-1f76-492b-91d4-4ba59498d11d"
     data-name="rect371"
     class="uuid-7ea1e125-09ed-44ab-840c-e34b6a14b892"
     x="14.177"
     y="90.258"
     width="141.732"
     height="226.805" />
  <path
     id="uuid-97f5fdf4-4965-4c0f-b44f-6731dafa98ba"
     data-name="path405"
     class="uuid-c1e42026-d7e6-4069-b182-e910ca88404c"
     d="M28.35,104.431h113.386v184.285H28.35V104.431Z" />
  <g
     id="g5">
    <rect
       class="uuid-c1e42026-d7e6-4069-b182-e910ca88404c"
       x="43.212"
       y="132.811"
       width="83.85"
       height="28.347"
       id="rect1" />
    <g
       id="g4">
      <polyline
         class="uuid-47b835e3-f73e-4b56-a820-148effc37007"
         points="127.062 159.658 127.062 161.158 125.562 161.158"
         id="polyline1" />
      <line
         class="uuid-6bb9a5dc-f4ff-460b-ae14-cc35cadd54a7"
         x1="122.567"
         y1="161.158"
         x2="46.209"
         y2="161.158"
         id="line1" />
      <polyline
         class="uuid-47b835e3-f73e-4b56-a820-148effc37007"
         points="44.712 161.158 43.212 161.158 43.212 159.658"
         id="polyline2" />
      <line
         class="uuid-4427e8ae-2d69-4269-993d-4b45bb9f54f9"
         x1="43.212"
         y1="156.842"
         x2="43.212"
         y2="135.719"
         id="line2" />
      <polyline
         class="uuid-47b835e3-f73e-4b56-a820-148effc37007"
         points="43.212 134.311 43.212 132.811 44.712 132.811"
         id="polyline3" />
      <line
         class="uuid-6bb9a5dc-f4ff-460b-ae14-cc35cadd54a7"
         x1="47.706"
         y1="132.811"
         x2="124.065"
         y2="132.811"
         id="line3" />
      <polyline
         class="uuid-47b835e3-f73e-4b56-a820-148effc37007"
         points="125.562 132.811 127.062 132.811 127.062 134.311"
         id="polyline4" />
      <line
         class="uuid-4427e8ae-2d69-4269-993d-4b45bb9f54f9"
         x1="127.062"
         y1="137.128"
         x2="127.062"
         y2="158.25"
         id="line4" />
    </g>
  </g>
  <rect
     id="uuid-c1f7a3ea-4b0e-4303-8e0c-1139f4d811da"
     data-name="rect14"
     class="uuid-7ea1e125-09ed-44ab-840c-e34b6a14b892"
     x="184.424"
     y="19.359"
     width="396.677"
     height="297.704" />
  <path
     id="uuid-4b54e75f-5958-4670-a9a0-aaec6f080751"
     data-name="path16"
     class="uuid-c1e42026-d7e6-4069-b182-e910ca88404c"
     d="M198.597,104.431h113.386v184.285h-113.386V104.431Z" />
  <g
     id="uuid-156875fe-cb95-4b30-92c6-8edd423ec298"
     data-name="g50">
    <g
       id="uuid-fcc6b866-7647-4e8c-9114-903bcea47bab"
       data-name="g22">
      <rect
         id="uuid-9571ea36-7532-451b-85c1-e9d3049cc3ab"
         data-name="rect18"
         class="uuid-7ea1e125-09ed-44ab-840c-e34b6a14b892"
         x="213.27"
         y="133.311"
         width="84.04"
         height="27.347" />
      <path
         id="uuid-2722c921-a632-446c-b006-bc87fc28442c"
         data-name="path20"
         class="uuid-0433d4fa-df47-47ae-aa65-14cd4a96cde6"
         d="M296.81,133.811v26.346h-83.039v-26.346h83.039M297.81,132.811h-85.039v28.346h85.039v-28.346Z" />
    </g>
    <g
       id="uuid-08c253af-6c23-4aa5-bd1c-7189a432e96f"
       data-name="g48">
      <path
         id="uuid-60841386-3fba-4a71-8b37-4f937c85ff24"
         data-name="path24"
         class="uuid-c7b81af3-68d9-4256-8713-5c701862f09f"
         d="M227.374,144.744h1.229l1.4,3.639,1.389-3.639h1.18l-2.06,5.008h-1.1l-2.038-5.008Z" />
      <path
         id="uuid-b5032ceb-f910-42ed-97d3-cce35b229cea"
         data-name="path26"
         class="uuid-c7b81af3-68d9-4256-8713-5c701862f09f"
         d="M233.243,143.036c-.006-.387.302-.705.689-.711.387-.006.705.302.711.689s-.302.705-.689.711c-.004,0-.007,0-.011,0-.383.004-.696-.303-.7-.686,0-.001,0-.002,0-.003ZM233.373,144.744h1.13v5.008h-1.13v-5.008Z" />
      <path
         id="uuid-a1ffe5c0-02b7-4539-86aa-c864607b6e11"
         data-name="path28"
         class="uuid-c7b81af3-68d9-4256-8713-5c701862f09f"
         d="M235.903,144.744h1.13v1.081c.146-.654.709-1.132,1.379-1.17.168.002.334.036.489.1v.989c-.198-.076-.407-.117-.619-.12-.545.002-1.036.328-1.249.829v3.3h-1.13v-5.009Z" />
      <path
         id="uuid-f053583b-bb67-495c-a786-2b81ba9d4965"
         data-name="path30"
         class="uuid-c7b81af3-68d9-4256-8713-5c701862f09f"
         d="M240.453,148.452v-2.808h-1v-.9h1v-1.378l1.129-.241v1.619h1.389v.9h-1.389v2.558c0,.491.19.68.7.68.232-.002.461-.042.68-.119v.949c-.315.091-.642.138-.97.14-1.01,0-1.539-.48-1.539-1.4Z" />
      <path
         id="uuid-69dcdc9d-1a42-42c5-a73c-632c9c863f52"
         data-name="path32"
         class="uuid-c7b81af3-68d9-4256-8713-5c701862f09f"
         d="M243.833,146.434h3.488v.959h-3.488v-.959Z" />
      <path
         id="uuid-d8521968-08f2-4c82-9cbb-48ff6731acf7"
         data-name="path34"
         class="uuid-c7b81af3-68d9-4256-8713-5c701862f09f"
         d="M248.592,142.586l1.13-.2v3.179c.329-.559.93-.902,1.579-.9.933-.034,1.718.695,1.752,1.628.002.054.001.107-.002.161v3.3h-1.141v-2.98c.068-.592-.357-1.126-.949-1.193-.05-.006-.101-.008-.151-.007-.446-.006-.861.226-1.089.609v3.568h-1.13v-7.165Z" />
      <path
         id="uuid-51807096-87c6-4583-bda2-bbca8c667d1f"
         data-name="path36"
         class="uuid-c7b81af3-68d9-4256-8713-5c701862f09f"
         d="M254.153,148.313c0-.9.739-1.469,1.919-1.469.469-.002.931.107,1.349.319v-.559c0-.66-.38-1-1.15-1-.509.021-1.007.154-1.459.39l-.4-.82c.647-.32,1.356-.494,2.078-.51,1.31,0,2.049.661,2.049,1.82v3.268h-1.119v-.519c-.391.4-.931.62-1.49.609-.878.098-1.67-.534-1.768-1.412-.004-.039-.007-.078-.009-.117ZM256.242,149.042c.431.011.852-.139,1.179-.42v-.809c-.36-.167-.753-.249-1.15-.239-.649,0-1.059.269-1.059.719s.398.751,1.03.751v-.002Z" />
      <path
         id="uuid-28a5a981-09d4-4d00-9bb5-fc561bc2eaf0"
         data-name="path38"
         class="uuid-c7b81af3-68d9-4256-8713-5c701862f09f"
         d="M259.91,144.744h1.129v.821c.329-.559.93-.902,1.579-.9.933-.034,1.717.696,1.751,1.629.002.053.001.107-.002.16v3.3h-1.14v-2.98c.068-.591-.356-1.125-.947-1.193-.051-.006-.102-.008-.154-.007-.446-.006-.862.226-1.09.609v3.568h-1.127v-5.007Z" />
      <path
         id="uuid-23889cf8-5ad0-492f-9622-e6e86cf4e6a2"
         data-name="path40"
         class="uuid-c7b81af3-68d9-4256-8713-5c701862f09f"
         d="M265.503,147.253c-.069-1.338.96-2.479,2.298-2.547.014,0,.027-.001.041-.002.558-.005,1.09.232,1.459.651v-2.769l1.128-.2v7.366h-1.119v-.66c-.38.461-.951.723-1.549.71-1.323-.076-2.335-1.21-2.259-2.533,0-.005,0-.011,0-.016ZM269.303,148.303v-2.109c-.298-.346-.733-.543-1.19-.539-.884.001-1.599.719-1.598,1.602.001.882.716,1.597,1.598,1.598.46.011.9-.193,1.188-.552h.002Z" />
      <path
         id="uuid-594429df-7b85-4c45-8f55-0bb7542a0f02"
         data-name="path42"
         class="uuid-c7b81af3-68d9-4256-8713-5c701862f09f"
         d="M271.833,142.586l1.129-.2v7.366h-1.129v-7.166Z" />
      <path
         id="uuid-6d26aed1-884e-47d3-9b0d-8533df1ae268"
         data-name="path44"
         class="uuid-c7b81af3-68d9-4256-8713-5c701862f09f"
         d="M274.123,147.253c-.064-1.364.99-2.522,2.354-2.586.028-.001.056-.002.084-.003,1.329.018,2.392,1.11,2.375,2.439,0,.05-.003.1-.007.15v.27h-3.7c.068.782.715,1.386,1.5,1.4.443.008.872-.161,1.19-.47l.739.67c-.544.484-1.251.744-1.979.73-1.403.009-2.548-1.122-2.557-2.525,0-.025,0-.05,0-.075ZM277.86,146.824c-.061-.684-.622-1.216-1.309-1.24-.69.017-1.255.552-1.309,1.24h2.618Z" />
      <path
         id="uuid-731a72f5-de50-4de9-ae1c-dafff270d6fe"
         data-name="path46"
         class="uuid-c7b81af3-68d9-4256-8713-5c701862f09f"
         d="M280.083,144.744h1.127v1.081c.146-.654.709-1.132,1.379-1.17.168.002.335.036.49.1v.989c-.198-.076-.408-.117-.62-.12-.544.003-1.035.328-1.249.829v3.3h-1.129l.002-5.009Z" />
    </g>
  </g>
  <g
     id="uuid-46a18ab0-83f0-406e-89fd-b87908396ab4"
     data-name="g104">
    <path
       id="uuid-87d4784f-f4e0-4c3d-8622-24a44165d67f"
       data-name="path78"
       class="uuid-c7b81af3-68d9-4256-8713-5c701862f09f"
       d="M212.771,114.377h2.848c1.933,0,3.5,1.567,3.5,3.5s-1.567,3.5-3.5,3.5h-2.848v-7ZM215.619,119.904c1.121-.173,1.889-1.221,1.716-2.342-.137-.885-.831-1.579-1.716-1.716h-1.129v4.058h1.129Z" />
    <path
       id="uuid-e3da9729-b92e-4fe0-8566-51a986339963"
       data-name="path80"
       class="uuid-c7b81af3-68d9-4256-8713-5c701862f09f"
       d="M219.981,119.894c0-.949.74-1.5,2.009-1.5.411.006.818.087,1.2.24v-.42c0-.5-.33-.75-1.019-.75-.502.024-.994.147-1.449.361l-.56-1.13c.74-.355,1.548-.546,2.369-.56,1.429,0,2.259.71,2.259,1.939v3.3h-1.6v-.45c-.39.353-.902.543-1.428.53-.878.1-1.671-.53-1.771-1.408-.006-.05-.009-.101-.01-.152ZM222.26,120.384c.328.001.65-.089.929-.261v-.659c-.291-.071-.589-.108-.889-.11-.53,0-.829.181-.829.51s.29.52.789.52h0Z" />
    <path
       id="uuid-df5f0ea4-f903-4835-8fb6-348d9203b916"
       data-name="path82"
       class="uuid-c7b81af3-68d9-4256-8713-5c701862f09f"
       d="M225.781,118.805c-.046-1.427,1.073-2.621,2.5-2.668.033-.001.067-.002.1-.001,1.398-.008,2.539,1.119,2.547,2.517,0,.071-.002.141-.008.212v.349h-3.549c.126.567.629.971,1.21.97.387.019.762-.139,1.019-.43l1.07.89c-.583.555-1.364.854-2.169.829-1.472.03-2.69-1.139-2.719-2.611,0-.019,0-.038,0-.057ZM229.419,118.295c-.087-.514-.528-.892-1.049-.9-.513.004-.942.39-1,.9h2.049Z" />
    <path
       id="uuid-8705fee3-338f-47fc-a940-aba048050da4"
       data-name="path84"
       class="uuid-c7b81af3-68d9-4256-8713-5c701862f09f"
       d="M231.933,116.216h1.618v.82c.312-.552.895-.896,1.529-.9.636-.013,1.213.369,1.449.959.353-.597.996-.963,1.69-.959.913.018,1.639.772,1.621,1.684,0,.041-.003.083-.007.124v3.428h-1.619v-3.108c.049-.423-.255-.805-.678-.854-.031-.004-.061-.005-.092-.005-.299-.003-.58.143-.75.389v3.578h-1.619v-3.108c.049-.423-.255-.805-.678-.854-.031-.004-.061-.005-.092-.005-.303.001-.587.151-.759.4v3.568h-1.613v-5.157Z" />
    <path
       id="uuid-c66c2215-a1ce-44e0-938c-0049b0613e94"
       data-name="path86"
       class="uuid-c7b81af3-68d9-4256-8713-5c701862f09f"
       d="M240.833,118.805c-.012-1.485,1.183-2.698,2.668-2.71,1.485-.012,2.698,1.183,2.71,2.668s-1.183,2.698-2.668,2.71c-.007,0-.015,0-.022,0-1.448.036-2.651-1.109-2.688-2.557,0-.037-.001-.074,0-.111ZM244.633,118.805c-.106-.613-.689-1.024-1.302-.918-.613.106-1.024.689-.918,1.302.093.54.561.934,1.109.934.651-.034,1.151-.589,1.117-1.24-.001-.026-.004-.052-.007-.078Z" />
    <path
       id="uuid-4bf5dd99-f548-4f0c-a5d2-d4cbf5676a09"
       data-name="path88"
       class="uuid-c7b81af3-68d9-4256-8713-5c701862f09f"
       d="M247.241,116.216h1.619v.839c.344-.571.962-.92,1.629-.919.92-.025,1.686.701,1.711,1.622.001.046,0,.091-.002.137v3.478h-1.619v-3.008c.055-.471-.282-.898-.753-.953-.035-.004-.07-.006-.106-.006-.339-.006-.66.154-.86.429v3.538h-1.619v-5.157Z" />
    <path
       id="uuid-b4070dd1-1d6b-4b73-ac87-8d4fc33d11e2"
       data-name="path90"
       class="uuid-c7b81af3-68d9-4256-8713-5c701862f09f"
       d="M252.981,120.423l.879-1.268c.635.549,1.432.876,2.27.929.739,0,1.188-.3,1.188-.74,0-.409-.239-.609-.919-.729l-1.489-.26c-.983-.067-1.74-.894-1.719-1.879,0-1.359,1.039-2.209,2.779-2.209,1.03-.013,2.037.31,2.868.92l-.869,1.249c-.588-.488-1.325-.76-2.089-.77-.68,0-1.07.28-1.07.66,0,.36.23.54.789.639l1.4.24c1.309.22,2,.91,2,1.979,0,1.37-1.159,2.3-2.988,2.3-1.1-.008-2.166-.381-3.03-1.061Z" />
    <path
       id="uuid-b7be6274-a4a6-42cd-a8bc-e01daeeb9902"
       data-name="path92"
       class="uuid-c7b81af3-68d9-4256-8713-5c701862f09f"
       d="M259.741,118.805c-.046-1.427,1.073-2.621,2.5-2.668.033-.001.067-.002.1-.001,1.398-.008,2.538,1.12,2.546,2.518,0,.07-.002.141-.008.211v.349h-3.546c.125.567.628.971,1.209.97.387.019.763-.139,1.019-.43l1.07.89c-.583.556-1.364.854-2.169.829-1.472.03-2.69-1.138-2.72-2.61,0-.019,0-.038,0-.058ZM263.379,118.295c-.088-.514-.529-.892-1.05-.9-.513.004-.942.39-1,.9h2.05Z" />
    <path
       id="uuid-b026dc62-9cb3-4556-9af5-f636dc7097d0"
       data-name="path94"
       class="uuid-c7b81af3-68d9-4256-8713-5c701862f09f"
       d="M266.57,119.814v-2.349h-1v-1.249h1v-1.43l1.619-.329v1.759h1.379v1.249h-1.379v2.029c0,.459.18.62.68.62.224-.002.446-.039.659-.11v1.309c-.362.099-.734.153-1.109.16-1.219,0-1.849-.56-1.849-1.659Z" />
  </g>
  <g
     id="uuid-ca1ff8e0-c930-4323-ac2a-b7f09a426166"
     data-name="g110">
    <line
       id="uuid-c99b5bed-fd49-478d-9cd9-f7a2733ad20d"
       data-name="line106"
       class="uuid-734eb5e7-a9a2-4143-b9ae-fb0ffb59897b"
       x1="382.762"
       y1="99.049"
       x2="382.762"
       y2="61.879" />
    <polygon
       id="uuid-878f486b-9cfe-49d3-b60e-fa6ff2eb7ab6"
       data-name="polygon108"
       class="uuid-c7b81af3-68d9-4256-8713-5c701862f09f"
       points="386.502 97.955 382.762 104.431 379.022 97.955 386.502 97.955" />
  </g>
  <g
     id="uuid-10e8137d-2082-4459-b6e7-df4f18106007"
     data-name="g218">
    <path
       id="uuid-df032e53-7102-44bf-b37e-158899adb32c"
       data-name="path112"
       class="uuid-c1e42026-d7e6-4069-b182-e910ca88404c"
       d="M326.156,104.431h113.386v184.285h-113.386V104.431Z" />
    <g
       id="uuid-8c68bd1c-c04e-44b2-8e73-1331a1df11c7"
       data-name="g148">
      <g
         id="uuid-58b342a6-b4c7-44a3-9e4e-b17eb31f6ca8"
         data-name="g118">
        <rect
           id="uuid-f9973a14-1317-43b9-babe-42f4ced8f3e4"
           data-name="rect114"
           class="uuid-7ea1e125-09ed-44ab-840c-e34b6a14b892"
           x="340.83"
           y="133.311"
           width="84.039"
           height="27.347" />
        <path
           id="uuid-815fbae1-2489-4c59-80c2-2b003dad6f72"
           data-name="path116"
           class="uuid-0433d4fa-df47-47ae-aa65-14cd4a96cde6"
           d="M424.369,133.811v26.346h-83.039v-26.346h83.039M425.369,132.811h-85.039v28.346h85.039v-28.346Z" />
      </g>
      <g
         id="uuid-be137a13-7dc1-4f52-b7be-718701414009"
         data-name="g146">
        <path
           id="uuid-afb3f3e2-5537-4648-b215-de902ee06e42"
           data-name="path120"
           class="uuid-c7b81af3-68d9-4256-8713-5c701862f09f"
           d="M352.458,144.744h1.229l1.4,3.639,1.389-3.639h1.18l-2.06,5.008h-1.1l-2.038-5.008Z" />
        <path
           id="uuid-217977d1-4cc4-4e56-9c0d-bc3193eddd49"
           data-name="path122"
           class="uuid-c7b81af3-68d9-4256-8713-5c701862f09f"
           d="M358.327,143.036c-.006-.387.302-.705.689-.711.387-.006.705.302.711.689.006.387-.302.705-.689.711-.004,0-.007,0-.011,0-.383.004-.696-.303-.7-.686,0-.001,0-.002,0-.003ZM358.457,144.744h1.13v5.008h-1.13v-5.008Z" />
        <path
           id="uuid-c50528ae-c9fd-4cfe-9eab-c418e027d64d"
           data-name="path124"
           class="uuid-c7b81af3-68d9-4256-8713-5c701862f09f"
           d="M360.987,144.744h1.13v1.081c.146-.654.709-1.132,1.379-1.17.168.002.334.036.489.1v.989c-.198-.076-.407-.117-.619-.12-.544.002-1.035.328-1.249.829v3.3h-1.13v-5.009Z" />
        <path
           id="uuid-9902deaf-93eb-4e99-b333-d6a70804c3bf"
           data-name="path126"
           class="uuid-c7b81af3-68d9-4256-8713-5c701862f09f"
           d="M365.537,148.452v-2.808h-1v-.9h1v-1.378l1.129-.241v1.619h1.389v.9h-1.389v2.558c0,.491.19.68.7.68.232-.002.461-.042.68-.119v.949c-.315.091-.642.138-.97.14-1.01,0-1.539-.48-1.539-1.4Z" />
        <path
           id="uuid-f1b7b53d-693f-48a3-8867-ea103765fa05"
           data-name="path128"
           class="uuid-c7b81af3-68d9-4256-8713-5c701862f09f"
           d="M368.917,146.434h3.493v.959h-3.488l-.005-.959Z" />
        <path
           id="uuid-d5a9d4eb-a63c-477d-a08d-8241b9b3817c"
           data-name="path130"
           class="uuid-c7b81af3-68d9-4256-8713-5c701862f09f"
           d="M373.676,142.586l1.13-.2v7.366h-1.13v-7.166Z" />
        <path
           id="uuid-e767092f-b9d4-46c7-b8db-75a7562fca27"
           data-name="path132"
           class="uuid-c7b81af3-68d9-4256-8713-5c701862f09f"
           d="M375.937,148.313c0-.9.739-1.469,1.919-1.469.469-.002.931.107,1.349.319v-.559c0-.66-.38-1-1.15-1-.509.021-1.007.154-1.459.39l-.4-.82c.647-.32,1.356-.494,2.078-.51,1.31,0,2.049.661,2.049,1.82v3.268h-1.113v-.519c-.391.4-.93.62-1.489.609-.878.102-1.672-.526-1.774-1.404-.005-.041-.008-.083-.01-.125ZM378.026,149.042c.431.011.852-.139,1.179-.42v-.809c-.36-.167-.753-.249-1.15-.239-.649,0-1.059.269-1.059.719s.4.751,1.03.751v-.002Z" />
        <path
           id="uuid-6c4545db-dbc5-452d-9fb3-f79ae2772533"
           data-name="path134"
           class="uuid-c7b81af3-68d9-4256-8713-5c701862f09f"
           d="M381.657,148.044v-3.3h1.139v2.969c-.07.593.354,1.131.947,1.202.051.006.102.008.153.007.444.008.859-.22,1.09-.6v-3.578h1.124v5.008h-1.129v-.808c-.331.561-.938.901-1.589.889-.935.025-1.712-.713-1.737-1.648-.001-.047,0-.094.002-.141Z" />
        <path
           id="uuid-77a86e15-d9f7-4fc5-8951-23f8533dad00"
           data-name="path136"
           class="uuid-c7b81af3-68d9-4256-8713-5c701862f09f"
           d="M387.516,144.744h1.13v.821c.329-.559.93-.902,1.579-.9.933-.034,1.717.694,1.751,1.627.002.054.001.108-.002.162v3.3h-1.139v-2.98c.068-.592-.357-1.126-.949-1.193-.05-.006-.101-.008-.151-.007-.446-.006-.861.226-1.089.609v3.568h-1.13v-5.007Z" />
        <path
           id="uuid-ae3c0498-2685-406a-9e0c-b88e25b50f40"
           data-name="path138"
           class="uuid-c7b81af3-68d9-4256-8713-5c701862f09f"
           d="M393.11,147.253c-.034-1.395,1.069-2.554,2.464-2.588.022,0,.043,0,.065,0,.756-.008,1.481.3,2,.85l-.7.73c-.312-.372-.772-.587-1.258-.589-.884.088-1.528.877-1.44,1.76.076.761.678,1.364,1.44,1.44.483-.003.942-.214,1.258-.58l.7.72c-.519.55-1.244.858-2,.849-1.392.005-2.525-1.12-2.53-2.512,0-.026,0-.053,0-.079Z" />
        <path
           id="uuid-8b4a83c3-f6c3-4f26-85be-e7acd3b9684f"
           data-name="path140"
           class="uuid-c7b81af3-68d9-4256-8713-5c701862f09f"
           d="M398.566,142.586l1.13-.2v3.179c.329-.559.93-.902,1.579-.9.933-.034,1.717.696,1.751,1.629.002.053.001.107-.002.16v3.3h-1.14v-2.98c.068-.591-.356-1.125-.947-1.193-.051-.006-.102-.008-.154-.007-.446-.006-.861.226-1.089.609v3.568h-1.13v-7.165Z" />
        <path
           id="uuid-780fbe64-f8d3-414d-bb01-4f06f6bc7a52"
           data-name="path142"
           class="uuid-c7b81af3-68d9-4256-8713-5c701862f09f"
           d="M404.156,147.253c-.064-1.365.991-2.523,2.356-2.587.027-.001.055-.002.082-.002,1.329.017,2.393,1.108,2.377,2.437,0,.051-.003.101-.007.152v.27h-3.7c.068.782.716,1.386,1.5,1.4.443.008.872-.161,1.19-.47l.74.67c-.545.483-1.251.744-1.979.73-1.404.01-2.55-1.12-2.56-2.524,0-.025,0-.05,0-.076ZM407.894,146.824c-.061-.684-.622-1.216-1.309-1.24-.69.016-1.255.552-1.309,1.24h2.618Z" />
        <path
           id="uuid-1ba3a59e-c674-4343-b568-5be390300b0f"
           data-name="path144"
           class="uuid-c7b81af3-68d9-4256-8713-5c701862f09f"
           d="M410.116,144.744h1.13v1.081c.146-.654.709-1.132,1.379-1.17.168.002.334.036.489.1v.989c-.198-.076-.407-.117-.619-.12-.544.002-1.035.328-1.249.829v3.3h-1.13v-5.009Z" />
      </g>
    </g>
    <g
       id="uuid-d8124eac-0cad-49ec-aab6-4bb636289677"
       data-name="g174">
      <g
         id="uuid-4332a86a-45d0-45d1-b9eb-dfe78a87d936"
         data-name="g154">
        <rect
           id="uuid-a8a334e3-cf17-470c-8a46-9097f12908ce"
           data-name="rect150"
           class="uuid-7ea1e125-09ed-44ab-840c-e34b6a14b892"
           x="340.83"
           y="190.004"
           width="84.039"
           height="27.346" />
        <path
           id="uuid-92023112-5972-4fb2-a351-3291948b99e3"
           data-name="path152"
           class="uuid-0433d4fa-df47-47ae-aa65-14cd4a96cde6"
           d="M424.369,190.504v26.346h-83.04v-26.346h83.04M425.369,189.504h-85.04v28.346h85.04v-28.346Z" />
      </g>
      <g
         id="uuid-811fe3de-14a1-40e7-b863-a1d1d5b42f2d"
         data-name="g172">
        <path
           id="uuid-e8c30171-0201-407c-bef3-e95b9b269e0e"
           data-name="path156"
           class="uuid-c7b81af3-68d9-4256-8713-5c701862f09f"
           d="M366.917,199.28l1.129-.2v7.364h-1.129v-7.164Z" />
        <path
           id="uuid-9d7e2684-8bc3-471a-a367-66cd114fcd05"
           data-name="path158"
           class="uuid-c7b81af3-68d9-4256-8713-5c701862f09f"
           d="M369.297,199.729c0-.387.313-.7.7-.7h0c.385.004.696.315.7.7-.006.382-.318.689-.7.689-.382.004-.696-.302-.7-.684,0-.002,0-.003,0-.005ZM369.426,201.438h1.129v5.006h-1.129v-5.006Z" />
        <path
           id="uuid-4c974de0-ec51-404e-9534-3081d853181c"
           data-name="path160"
           class="uuid-c7b81af3-68d9-4256-8713-5c701862f09f"
           d="M371.957,199.309l1.129-.19v2.989c.378-.459.944-.721,1.539-.71,1.406.155,2.421,1.42,2.267,2.827-.134,1.219-1.114,2.173-2.337,2.273-.575.008-1.123-.246-1.489-.689v.641h-1.109v-7.141ZM375.774,203.947c.048-.835-.591-1.55-1.425-1.598-.021-.001-.042-.002-.064-.002-.466-.012-.91.195-1.2.559v2.089c.296.357.736.563,1.2.559.834-.01,1.502-.694,1.492-1.528,0-.028-.001-.055-.003-.082v.003Z" />
        <path
           id="uuid-def9cbbb-58c6-47bd-a3f4-4ffe5fd123d6"
           data-name="path162"
           class="uuid-c7b81af3-68d9-4256-8713-5c701862f09f"
           d="M377.476,201.438h1.23l1.4,3.639,1.39-3.639h1.179l-2.059,5.008h-1.1l-2.04-5.008Z" />
        <path
           id="uuid-59492fec-85b7-4c00-b05c-3299eab9520e"
           data-name="path164"
           class="uuid-c7b81af3-68d9-4256-8713-5c701862f09f"
           d="M383.346,199.729c-.006-.387.302-.705.689-.711.387-.006.705.302.711.689.006.387-.302.705-.689.711-.004,0-.007,0-.011,0-.383.004-.696-.303-.7-.686,0-.001,0-.002,0-.003ZM383.476,201.438h1.134v5.006h-1.129l-.005-5.006Z" />
        <path
           id="uuid-01ea1e60-4605-4582-8298-13f399cfa53b"
           data-name="path166"
           class="uuid-c7b81af3-68d9-4256-8713-5c701862f09f"
           d="M386.01,201.438h1.128v1.08c.148-.653.71-1.13,1.379-1.17.169.002.335.036.491.1v.99c-.198-.077-.409-.118-.621-.121-.545.003-1.036.329-1.249.83v3.3h-1.128v-5.009Z" />
        <path
           id="uuid-a77ee15a-e023-4c26-851a-61d1b8e5ff07"
           data-name="path168"
           class="uuid-c7b81af3-68d9-4256-8713-5c701862f09f"
           d="M390.555,205.144v-2.809h-1v-.9h1v-1.379l1.13-.24v1.619h1.389v.9h-1.389v2.559c0,.489.19.68.7.68.232-.003.461-.044.68-.121v.95c-.315.091-.642.138-.97.14-1.009.001-1.54-.478-1.54-1.399Z" />
        <path
           id="uuid-0458481a-bd42-479e-94a0-7273a0691a6f"
           data-name="path170"
           class="uuid-c7b81af3-68d9-4256-8713-5c701862f09f"
           d="M393.846,203.944c-.069-1.338.96-2.479,2.298-2.547.014,0,.027-.001.041-.002.558-.006,1.09.231,1.459.649v-2.767l1.129-.2v7.367h-1.119v-.66c-.381.46-.952.721-1.549.708-1.32-.072-2.332-1.2-2.261-2.52,0-.009.001-.018.002-.028ZM397.646,204.993v-2.109c-.298-.346-.733-.543-1.189-.539-.884.001-1.599.719-1.598,1.602.001.882.716,1.597,1.598,1.598.46.013.899-.19,1.187-.549l.002-.003Z" />
      </g>
    </g>
    <g
       id="uuid-59266f2a-0cb9-406a-8cc6-8053987142a1"
       data-name="g188">
      <g
         id="uuid-bd6c25b9-1113-4fc8-b3e0-b2a40141707b"
         data-name="g180">
        <rect
           id="uuid-d812d3ae-0602-4733-8896-462b43ed6d1c"
           data-name="rect176"
           class="uuid-7ea1e125-09ed-44ab-840c-e34b6a14b892"
           x="340.829"
           y="246.696"
           width="84.04"
           height="27.347" />
        <path
           id="uuid-a155f2eb-b7bf-487e-bbac-f76ff62c19af"
           data-name="path178"
           class="uuid-0433d4fa-df47-47ae-aa65-14cd4a96cde6"
           d="M424.368,247.197v26.347h-83.039v-26.347h83.039M425.368,246.197h-85.039v28.347h85.039v-28.347Z" />
      </g>
      <g
         id="uuid-1e594847-9930-46ef-a6e4-8ca2ab72a398"
         data-name="g186">
        <path
           id="uuid-f4424b40-4e8c-4005-ba5a-91108a19389c"
           data-name="path182"
           class="uuid-c7b81af3-68d9-4256-8713-5c701862f09f"
           d="M374.977,256.144h1.289l2.149,5.777,2.169-5.777h1.239l-2.738,7h-1.39l-2.718-7Z" />
        <path
           id="uuid-3a5cf4bd-ee03-4f0e-81b9-0170ebcb12cb"
           data-name="path184"
           class="uuid-c7b81af3-68d9-4256-8713-5c701862f09f"
           d="M382.726,256.144h1.559l2.05,4.248,2.038-4.248h1.559v7h-1.13v-5.477l-2.478,4.978-2.488-5.008v5.507h-1.11v-7Z" />
      </g>
    </g>
    <g
       id="uuid-c96b55fe-de4a-4442-86a1-cba5d014d06d"
       data-name="g196">
      <line
         id="uuid-2a7a2a6f-4393-46c5-b692-fde73ec6a187"
         data-name="line190"
         class="uuid-734eb5e7-a9a2-4143-b9ae-fb0ffb59897b"
         x1="382.848"
         y1="184.121"
         x2="382.848"
         y2="166.539" />
      <polygon
         id="uuid-abb41a40-e9f5-4721-a735-b07a6dac314b"
         data-name="polygon192"
         class="uuid-c7b81af3-68d9-4256-8713-5c701862f09f"
         points="386.588 183.027 382.848 189.504 379.109 183.027 386.588 183.027" />
      <polygon
         id="uuid-1a2571b7-329e-4b4c-8f1c-55c84abfc806"
         data-name="polygon194"
         class="uuid-c7b81af3-68d9-4256-8713-5c701862f09f"
         points="386.588 167.634 382.848 161.157 379.109 167.634 386.588 167.634" />
    </g>
    <g
       id="uuid-0b6b78e4-008f-440b-b9b9-80a588a60cec"
       data-name="g204">
      <line
         id="uuid-79d77e38-48c8-491c-b4cb-db2ec5daa7ea"
         data-name="line198"
         class="uuid-734eb5e7-a9a2-4143-b9ae-fb0ffb59897b"
         x1="382.849"
         y1="240.814"
         x2="382.849"
         y2="223.232" />
      <polygon
         id="uuid-8e5c3b43-65a1-4517-888b-7ad3d07665ed"
         data-name="polygon200"
         class="uuid-c7b81af3-68d9-4256-8713-5c701862f09f"
         points="386.589 239.72 382.849 246.197 379.109 239.72 386.589 239.72" />
      <polygon
         id="uuid-44c13ede-64ff-4529-9cbf-c9c65da8ede3"
         data-name="polygon202"
         class="uuid-c7b81af3-68d9-4256-8713-5c701862f09f"
         points="386.589 224.327 382.849 217.85 379.109 224.327 386.589 224.327" />
    </g>
    <g
       id="uuid-04a2f22f-6dc4-4597-a9a8-f4a3bf0ac1b9"
       data-name="g216">
      <path
         id="uuid-0bd8a947-7e32-4ed3-95ce-17804e24985c"
         data-name="path206"
         class="uuid-c7b81af3-68d9-4256-8713-5c701862f09f"
         d="M340.347,114.377h1.86l1.848,5.207,1.879-5.207h1.789l-2.728,7h-1.959l-2.689-7Z" />
      <path
         id="uuid-ed859e72-76f4-4576-8b4d-742f6c0ee83a"
         data-name="path208"
         class="uuid-c7b81af3-68d9-4256-8713-5c701862f09f"
         d="M348.527,114.377h2.159l1.689,3.358,1.679-3.358h2.156v7h-1.62v-4.748l-2.238,4.248-2.249-4.288v4.788h-1.579l.003-7Z" />
      <path
         id="uuid-67837add-0087-40dd-a0d5-65d0f88e4321"
         data-name="path212"
         class="uuid-c7b81af3-68d9-4256-8713-5c701862f09f"
         d="M366.647,118.805c-.012-1.485,1.183-2.698,2.668-2.71,1.485-.012,2.698,1.183,2.71,2.668s-1.183,2.698-2.668,2.71c-.007,0-.014,0-.021,0-1.449.036-2.652-1.109-2.689-2.558,0-.037-.001-.073,0-.11ZM370.447,118.805c-.106-.613-.689-1.024-1.302-.918-.613.106-1.024.689-.918,1.302.093.54.562.934,1.11.934.651-.036,1.149-.592,1.114-1.243-.001-.025-.004-.05-.007-.075h.002Z" />
      <path
         id="uuid-6aac880b-1420-472a-851f-460a2dd664a0"
         data-name="path214"
         class="uuid-c7b81af3-68d9-4256-8713-5c701862f09f"
         d="M372.827,118.785c-.064-1.371.996-2.535,2.368-2.599.011,0,.021,0,.032-.001.529-.006,1.033.221,1.38.62v-2.549l1.619-.25v7.366h-1.6v-.67c-.375.45-.933.707-1.519.7-1.352-.095-2.371-1.265-2.28-2.617ZM376.605,119.654v-1.739c-.252-.259-.599-.404-.96-.4-.704.02-1.259.606-1.239,1.31.019.676.563,1.22,1.239,1.239.366.011.719-.139.965-.41h-.005Z" />
    </g>
  </g>
  <path
     id="uuid-fc533ae4-ad50-4b6c-bea7-7f94e400a708"
     data-name="path220"
     class="uuid-c1e42026-d7e6-4069-b182-e910ca88404c"
     d="M453.542,104.431h113.386v184.285h-113.386V104.431Z" />
  <g
     id="uuid-323815c1-894b-41ca-a62a-efd96bc61647"
     data-name="g226">
    <rect
       id="uuid-663cf525-0c2f-410b-8738-5bb15a0d8d77"
       data-name="rect222"
       class="uuid-836921ed-2b67-4e10-9e94-1860f36f63a9"
       x="468.214"
       y="133.311"
       width="84.04"
       height="27.347" />
    <path
       id="uuid-b722cf15-846e-4388-8fd0-ca0ab9a34378"
       data-name="path224"
       class="uuid-75be3201-1695-453d-ae1c-e1df66bc56d8"
       d="M551.754,133.811v26.346h-83.039v-26.346h83.039M552.754,132.811h-85.039v28.346h85.039v-28.346Z" />
  </g>
  <g
     id="uuid-9a7b84dd-4862-4258-a5ea-aaffa527f1a8"
     data-name="g248">
    <path
       id="uuid-d6bd79f8-055e-4a9d-a7a7-051d97ee2ce3"
       data-name="path228"
       class="uuid-c7b81af3-68d9-4256-8713-5c701862f09f"
       d="M485.538,147.253c-.035-1.395,1.068-2.553,2.462-2.588.022,0,.044,0,.066,0,.756-.008,1.481.3,2,.85l-.7.73c-.313-.372-.774-.587-1.26-.589-.884.088-1.528.877-1.44,1.76.076.761.678,1.364,1.44,1.44.484-.003.943-.214,1.26-.58l.7.72c-.519.55-1.244.858-2,.849-1.392.005-2.524-1.119-2.529-2.511,0-.027,0-.053,0-.08Z" />
    <path
       id="uuid-1df09c23-c15a-4408-b652-89149345f7f6"
       data-name="path230"
       class="uuid-c7b81af3-68d9-4256-8713-5c701862f09f"
       d="M490.767,147.253c.041-1.388,1.2-2.481,2.588-2.44,1.388.041,2.481,1.2,2.44,2.588-.04,1.358-1.151,2.438-2.509,2.441-1.381.011-2.509-1.099-2.521-2.479,0-.037,0-.073.001-.11ZM494.685,147.253c-.115-.776-.838-1.311-1.614-1.196-.776.115-1.311.838-1.196,1.614.104.698.704,1.213,1.409,1.211.82-.044,1.449-.743,1.405-1.563-.001-.022-.003-.044-.005-.066Z" />
    <path
       id="uuid-3d4a9062-7e1d-4f50-935b-c0c302050bb8"
       data-name="path232"
       class="uuid-c7b81af3-68d9-4256-8713-5c701862f09f"
       d="M496.967,144.744h1.129v.821c.329-.559.931-.902,1.58-.9.933-.034,1.717.696,1.751,1.629.002.053.001.107-.002.16v3.3h-1.14v-2.98c.068-.592-.357-1.126-.949-1.193-.05-.006-.101-.008-.151-.007-.446-.006-.861.226-1.09.609v3.568h-1.129v-5.007Z" />
    <path
       id="uuid-a362bd0f-66d2-4f1c-b545-eede36ac8e1c"
       data-name="path234"
       class="uuid-c7b81af3-68d9-4256-8713-5c701862f09f"
       d="M503.41,148.452v-2.808h-1v-.9h1v-1.378l1.129-.241v1.619h1.39v.9h-1.39v2.558c0,.491.19.68.7.68.232-.002.461-.042.68-.119v.949c-.315.091-.642.138-.97.14-1.013,0-1.539-.48-1.539-1.4Z" />
    <path
       id="uuid-7975b016-4d44-4aaf-b32c-e57f7553a60b"
       data-name="path236"
       class="uuid-c7b81af3-68d9-4256-8713-5c701862f09f"
       d="M506.668,148.313c0-.9.739-1.469,1.919-1.469.468-.002.93.107,1.348.319v-.559c0-.66-.38-1-1.149-1-.509.021-1.007.154-1.459.39l-.4-.82c.648-.32,1.357-.494,2.079-.51,1.309,0,2.048.661,2.048,1.82v3.268h-1.119v-.519c-.391.4-.93.621-1.489.609-.874.102-1.666-.524-1.768-1.398-.005-.043-.008-.087-.01-.131ZM508.757,149.042c.431.011.851-.139,1.178-.42v-.809c-.359-.167-.753-.249-1.149-.239-.65,0-1.06.269-1.06.719s.401.751,1.031.751v-.002Z" />
    <path
       id="uuid-a41d4d65-158c-4705-bb9e-72d000170cc8"
       data-name="path238"
       class="uuid-c7b81af3-68d9-4256-8713-5c701862f09f"
       d="M512.287,143.036c0-.387.313-.7.7-.7h0c.385.005.695.315.7.7-.006.382-.318.689-.7.689-.383.004-.696-.303-.7-.686v-.003ZM512.417,144.744h1.129v5.008h-1.129v-5.008Z" />
    <path
       id="uuid-c8d3f847-6439-4184-8afd-5e2873dfbef9"
       data-name="path240"
       class="uuid-c7b81af3-68d9-4256-8713-5c701862f09f"
       d="M514.947,144.744h1.129v.821c.329-.559.93-.902,1.579-.9.933-.034,1.717.696,1.751,1.629.002.053.001.107-.002.16v3.3h-1.14v-2.98c.068-.591-.356-1.125-.946-1.193-.051-.006-.102-.008-.154-.007-.446-.006-.862.226-1.09.609v3.568h-1.129l.002-5.007Z" />
    <path
       id="uuid-27c5fd2a-32dc-48bd-8589-82fc35c8e7c0"
       data-name="path242"
       class="uuid-c7b81af3-68d9-4256-8713-5c701862f09f"
       d="M520.537,147.253c-.064-1.364.99-2.522,2.354-2.586.028-.001.056-.002.084-.003,1.329.018,2.392,1.11,2.375,2.439,0,.05-.003.1-.007.15v.27h-3.7c.068.782.715,1.386,1.5,1.4.443.008.872-.161,1.19-.47l.739.67c-.544.484-1.251.744-1.979.73-1.403.009-2.548-1.122-2.557-2.525,0-.025,0-.05,0-.075ZM524.274,146.824c-.061-.684-.622-1.215-1.308-1.24-.69.016-1.256.552-1.31,1.24h2.618Z" />
    <path
       id="uuid-e71395ec-2861-4e46-9d8c-cad954b74b45"
       data-name="path244"
       class="uuid-c7b81af3-68d9-4256-8713-5c701862f09f"
       d="M526.497,144.744h1.129v1.081c.146-.654.709-1.132,1.379-1.17.168.002.335.036.49.1v.989c-.198-.076-.408-.117-.62-.12-.544.003-1.035.328-1.249.829v3.3h-1.129v-5.009Z" />
    <path
       id="uuid-75a0b407-d29a-4955-8a47-aeb9d02824b9"
       data-name="path246"
       class="uuid-c7b81af3-68d9-4256-8713-5c701862f09f"
       d="M533.586,143.906l-1.24.529v-.97l1.64-.709h.69v7h-1.09v-5.85Z" />
  </g>
  <g
     id="uuid-1ddb1dba-c731-4ae6-8d47-2d081d04b603"
     data-name="g256">
    <rect
       id="uuid-2e13abf1-ecac-4184-9cdf-28a6d90685dc"
       data-name="rect252"
       class="uuid-836921ed-2b67-4e10-9e94-1860f36f63a9"
       x="468.214"
       y="190.004"
       width="84.039"
       height="27.346" />
    <path
       id="uuid-77cfedf2-fd79-449a-a8f7-18c38f63dd56"
       data-name="path254"
       class="uuid-75be3201-1695-453d-ae1c-e1df66bc56d8"
       d="M551.754,190.504v26.346h-83.039v-26.346h83.039M552.754,189.504h-85.039v28.346h85.039v-28.346Z" />
  </g>
  <g
     id="uuid-6ea86736-bdc5-410a-81ec-e0daae6a3a0b"
     data-name="g278">
    <path
       id="uuid-78cb9506-8834-42cc-88a9-49a57e59e033"
       data-name="path258"
       class="uuid-c7b81af3-68d9-4256-8713-5c701862f09f"
       d="M484.397,203.944c-.034-1.395,1.069-2.554,2.464-2.588.022,0,.043,0,.065,0,.756-.01,1.482.298,2,.849l-.7.73c-.312-.372-.773-.588-1.259-.59-.884.088-1.528.877-1.44,1.76.076.761.678,1.364,1.44,1.44.483-.003.942-.214,1.259-.579l.7.719c-.518.551-1.244.859-2,.85-1.392.006-2.524-1.118-2.53-2.51,0-.027,0-.053,0-.08Z" />
    <path
       id="uuid-6c6b234e-bbb3-41e6-a5b7-b7fb5b4232d3"
       data-name="path260"
       class="uuid-c7b81af3-68d9-4256-8713-5c701862f09f"
       d="M489.628,203.944c.04-1.388,1.199-2.481,2.587-2.441,1.388.04,2.481,1.199,2.441,2.587-.039,1.358-1.151,2.44-2.51,2.442-1.377.014-2.505-1.091-2.52-2.468,0-.04,0-.08.002-.12ZM493.546,203.944c-.115-.776-.838-1.311-1.614-1.196-.776.115-1.311.838-1.196,1.614.104.698.704,1.213,1.409,1.211.82-.044,1.449-.743,1.405-1.563-.001-.022-.003-.044-.005-.066Z" />
    <path
       id="uuid-c0944f08-75ae-4bbb-8542-13eee53e833b"
       data-name="path262"
       class="uuid-c7b81af3-68d9-4256-8713-5c701862f09f"
       d="M495.827,201.438h1.13v.819c.328-.56.93-.903,1.579-.9.933-.034,1.717.694,1.751,1.627.002.054.001.108-.002.162v3.3h-1.14v-2.979c.068-.592-.357-1.126-.949-1.193-.05-.006-.101-.008-.151-.007-.446-.006-.861.226-1.089.61v3.567h-1.13v-5.006Z" />
    <path
       id="uuid-f8643b77-e4d5-4a2d-b7fe-5ecce34cd54c"
       data-name="path264"
       class="uuid-c7b81af3-68d9-4256-8713-5c701862f09f"
       d="M502.266,205.144v-2.809h-1v-.9h1v-1.38l1.13-.239v1.619h1.389v.9h-1.389v2.559c0,.489.19.68.7.68.232-.003.461-.044.68-.121v.95c-.315.091-.642.138-.97.14-1.009.001-1.54-.478-1.54-1.399Z" />
    <path
       id="uuid-dbeeec49-2866-4976-8051-c4b32934ac14"
       data-name="path266"
       class="uuid-c7b81af3-68d9-4256-8713-5c701862f09f"
       d="M505.527,205.006c0-.9.739-1.47,1.919-1.47.469-.002.932.108,1.35.321v-.561c0-.659-.38-1-1.15-1-.509.021-1.007.154-1.459.39l-.4-.819c.648-.32,1.357-.494,2.079-.51,1.31,0,2.049.659,2.049,1.819v3.268h-1.119v-.52c-.391.401-.93.621-1.49.61-.878.1-1.671-.532-1.77-1.41-.004-.039-.007-.079-.009-.118ZM507.616,205.736c.432.011.852-.139,1.18-.42v-.81c-.36-.167-.753-.249-1.15-.24-.649,0-1.059.27-1.059.72s.399.75,1.029.75Z" />
    <path
       id="uuid-a7b21254-563e-4421-add6-6884fabd5634"
       data-name="path268"
       class="uuid-c7b81af3-68d9-4256-8713-5c701862f09f"
       d="M511.146,199.729c-.006-.387.302-.705.689-.711.387-.006.705.302.711.689.006.387-.302.705-.689.711-.004,0-.007,0-.011,0-.383.004-.696-.303-.7-.686,0-.001,0-.002,0-.003ZM511.276,201.438h1.13v5.006h-1.13v-5.006Z" />
    <path
       id="uuid-8e908ca1-7894-4f4d-966c-086c10f6005a"
       data-name="path270"
       class="uuid-c7b81af3-68d9-4256-8713-5c701862f09f"
       d="M513.81,201.438h1.13v.819c.329-.56.93-.902,1.579-.9.932-.035,1.716.693,1.751,1.625.002.055.001.11-.002.164v3.3h-1.139v-2.979c.067-.592-.359-1.126-.951-1.194-.049-.006-.099-.008-.149-.006-.446-.006-.861.226-1.089.61v3.567h-1.13v-5.006Z" />
    <path
       id="uuid-6d6a39c8-8cdd-457b-8333-a3af2c773d88"
       data-name="path272"
       class="uuid-c7b81af3-68d9-4256-8713-5c701862f09f"
       d="M519.396,203.944c-.064-1.364.99-2.522,2.354-2.586.028-.001.057-.002.085-.003,1.329.017,2.393,1.109,2.376,2.438,0,.05-.003.101-.007.151v.269h-3.7c.068.782.715,1.386,1.5,1.4.443.008.871-.161,1.189-.47l.74.669c-.545.483-1.251.744-1.979.73-1.404.009-2.549-1.121-2.559-2.525,0-.024,0-.048,0-.073ZM523.134,203.514c-.061-.684-.622-1.216-1.309-1.239-.69.016-1.255.551-1.309,1.239h2.618Z" />
    <path
       id="uuid-026febef-9222-47c2-b9b0-f507fb3a1589"
       data-name="path274"
       class="uuid-c7b81af3-68d9-4256-8713-5c701862f09f"
       d="M525.356,201.438h1.13v1.079c.147-.654.71-1.131,1.379-1.169.168.002.334.036.489.1v.989c-.198-.076-.407-.116-.619-.12-.545.002-1.036.328-1.249.83v3.3h-1.13v-5.009Z" />
    <path
       id="uuid-a842d1fb-316e-42f0-aed5-c0e5973a25bd"
       data-name="path276"
       class="uuid-c7b81af3-68d9-4256-8713-5c701862f09f"
       d="M531.346,205.656l2.869-3c.405-.331.652-.817.679-1.339-.059-.625-.614-1.083-1.239-1.023-.01,0-.02.002-.029.003-.698.018-1.358.326-1.82.85l-.62-.75c.651-.659,1.533-1.039,2.459-1.059,1.369,0,2.309.78,2.309,1.919-.031.765-.392,1.479-.989,1.959l-2.229,2.3,3.348-.01v.94h-4.738v-.79Z" />
  </g>
  <g
     id="uuid-d5d58986-5815-4917-a4ab-439ede01a7a2"
     data-name="g286">
    <rect
       id="uuid-a58adddf-007e-4275-bc78-2d1e8195beba"
       data-name="rect282"
       class="uuid-836921ed-2b67-4e10-9e94-1860f36f63a9"
       x="468.214"
       y="246.696"
       width="84.039"
       height="27.347" />
    <path
       id="uuid-09e64ea8-1f00-41e8-954b-7466a400b498"
       data-name="path284"
       class="uuid-75be3201-1695-453d-ae1c-e1df66bc56d8"
       d="M551.754,247.197v26.347h-83.044v-26.347h83.04M552.75,246.197h-85.04v28.347h85.04v-28.347Z" />
  </g>
  <g
     id="uuid-36fcbd83-7419-4503-a49a-9344811cd865"
     data-name="g308">
    <path
       id="uuid-20a742c8-610e-45f7-b0d9-4f9c6c636add"
       data-name="path288"
       class="uuid-c7b81af3-68d9-4256-8713-5c701862f09f"
       d="M484.392,260.644c-.034-1.395,1.069-2.553,2.463-2.587.022,0,.044,0,.066,0,.756-.008,1.481.3,2,.85l-.7.728c-.313-.371-.773-.586-1.259-.589-.884.088-1.528.876-1.44,1.76.076.761.678,1.364,1.44,1.44.484-.003.942-.215,1.259-.58l.7.719c-.519.55-1.244.858-2,.85-1.392.005-2.525-1.12-2.53-2.512,0-.026,0-.052,0-.078Z" />
    <path
       id="uuid-1ef2c5b2-05e9-45c1-b68b-051ce8c0056a"
       data-name="path290"
       class="uuid-c7b81af3-68d9-4256-8713-5c701862f09f"
       d="M489.622,260.644c.041-1.388,1.2-2.481,2.588-2.44,1.388.041,2.481,1.2,2.44,2.588-.04,1.358-1.151,2.439-2.51,2.441-1.378.014-2.506-1.092-2.52-2.47,0-.04,0-.079.002-.119ZM493.54,260.644c-.115-.776-.838-1.311-1.614-1.196-.776.115-1.311.838-1.196,1.614.104.698.704,1.213,1.409,1.211.82-.044,1.449-.743,1.405-1.563-.001-.022-.003-.044-.005-.066Z" />
    <path
       id="uuid-f7e6fe43-be57-424e-bae8-4d9a3174d77c"
       data-name="path292"
       class="uuid-c7b81af3-68d9-4256-8713-5c701862f09f"
       d="M495.822,258.131h1.129v.82c.329-.559.93-.902,1.579-.9.933-.034,1.717.694,1.751,1.627.002.054.001.108-.002.162v3.3h-1.14v-2.978c.068-.592-.357-1.126-.949-1.193-.05-.006-.101-.008-.151-.007-.447-.006-.862.227-1.09.611v3.567h-1.129l.002-5.009Z" />
    <path
       id="uuid-87a7a9af-a9b6-4fbd-9f00-cd2c67d1f77b"
       data-name="path294"
       class="uuid-c7b81af3-68d9-4256-8713-5c701862f09f"
       d="M502.261,261.838v-2.808h-1v-.9h1v-1.38l1.129-.239v1.619h1.39v.9h-1.39v2.558c0,.49.191.68.7.68.231-.002.461-.043.679-.119v.949c-.315.091-.641.139-.969.141-1.009.005-1.539-.481-1.539-1.401Z" />
    <path
       id="uuid-26673503-c1f3-4337-84ed-794ebe1d37ef"
       data-name="path296"
       class="uuid-c7b81af3-68d9-4256-8713-5c701862f09f"
       d="M505.522,261.7c0-.9.739-1.47,1.919-1.47.469-.003.931.107,1.349.319v-.559c0-.66-.38-1-1.15-1-.509.021-1.007.153-1.459.389l-.4-.819c.647-.32,1.356-.494,2.078-.51,1.31,0,2.049.659,2.049,1.818v3.269h-1.118v-.519c-.391.4-.93.62-1.489.609-.878.1-1.671-.532-1.77-1.41-.004-.039-.007-.078-.009-.117ZM507.611,262.428c.431.011.852-.139,1.179-.42v-.808c-.36-.168-.753-.25-1.15-.241-.649,0-1.059.27-1.059.72s.4.749,1.029.749h0Z" />
    <path
       id="uuid-a9598826-0399-4240-a0e8-fafe9676881c"
       data-name="path298"
       class="uuid-c7b81af3-68d9-4256-8713-5c701862f09f"
       d="M511.141,256.422c0-.387.313-.7.7-.7h0c.385.005.695.315.7.7-.005.383-.317.69-.7.69-.383.003-.697-.305-.7-.688v-.002ZM511.271,258.131h1.129v5.007h-1.129v-5.007Z" />
    <path
       id="uuid-e378c430-99e8-4315-bfdf-6de16e021afe"
       data-name="path300"
       class="uuid-c7b81af3-68d9-4256-8713-5c701862f09f"
       d="M513.801,258.131h1.129v.82c.329-.559.93-.902,1.579-.9.933-.035,1.717.693,1.752,1.626.002.054.001.109-.002.163v3.3h-1.14v-2.978c.067-.592-.359-1.126-.951-1.194-.049-.006-.099-.008-.149-.006-.447-.006-.862.227-1.09.611v3.567h-1.129v-5.009Z" />
    <path
       id="uuid-1524c324-5c83-4cb4-bf22-d4cfd1674bba"
       data-name="path302"
       class="uuid-c7b81af3-68d9-4256-8713-5c701862f09f"
       d="M519.391,260.644c-.064-1.364.989-2.521,2.353-2.585.029-.001.057-.002.086-.003,1.329.017,2.393,1.109,2.376,2.438,0,.05-.003.1-.007.15v.27h-3.7c.068.782.715,1.387,1.5,1.4.443.008.871-.162,1.189-.471l.739.67c-.544.484-1.25.745-1.978.731-1.404.009-2.549-1.121-2.559-2.525,0-.025,0-.05,0-.075ZM523.129,260.214c-.062-.684-.623-1.214-1.309-1.238-.69.015-1.256.55-1.31,1.238h2.619Z" />
    <path
       id="uuid-ad49553e-1ad3-482f-9251-b2c3c2a801a9"
       data-name="path304"
       class="uuid-c7b81af3-68d9-4256-8713-5c701862f09f"
       d="M525.351,258.131h1.129v1.079c.148-.653.711-1.129,1.379-1.166.168.002.334.036.49.1v.989c-.198-.076-.408-.116-.62-.12-.545.003-1.035.329-1.249.83v3.3h-1.129v-5.012Z" />
    <path
       id="uuid-47ca3a68-04f8-4d05-afa5-5dd198c30a46"
       data-name="path306"
       class="uuid-c7b81af3-68d9-4256-8713-5c701862f09f"
       d="M532.061,258.131h1.11l-.161.749c.388-.498.979-.795,1.61-.809.771-.052,1.439.532,1.49,1.303.014.203-.017.407-.09.597l-.679,3.169h-1.11l.63-2.9c.17-.76-.18-1.28-.869-1.28-.432.012-.838.213-1.109.55l-.79,3.628h-1.12l1.088-5.007Z" />
  </g>
  <g
     id="g6">
    <path
       id="uuid-79ee8a02-4d96-48dc-a8b1-3cc70f529a4d"
       data-name="path312"
       class="uuid-c7b81af3-68d9-4256-8713-5c701862f09f"
       d="M468.163,117.875c-.006-1.998,1.61-3.622,3.608-3.628,1.998-.006,3.622,1.61,3.628,3.608s-1.61,3.622-3.608,3.628c-.003,0-.007,0-.01,0-1.975.023-3.595-1.56-3.618-3.536,0-.024,0-.048,0-.072ZM473.63,117.875c-.119-1.021-1.044-1.753-2.065-1.633-1.021.119-1.753,1.044-1.633,2.065.11.939.905,1.646,1.85,1.646,1.066-.042,1.895-.94,1.853-2.006,0-.024-.002-.048-.004-.072h0Z" />
    <path
       id="uuid-95514fed-4b7f-48e4-b5da-c92934d5f222"
       data-name="path314"
       class="uuid-c7b81af3-68d9-4256-8713-5c701862f09f"
       d="M477.162,119.814v-2.349h-1v-1.249h1v-1.43l1.619-.329v1.759h1.38v1.249h-1.38v2.029c0,.459.181.62.68.62.224-.002.447-.039.66-.11v1.309c-.362.099-.735.153-1.11.16-1.219,0-1.849-.56-1.849-1.659Z" />
    <path
       id="uuid-54d8d589-5ce1-4b71-a186-dffafaa9b5d3"
       data-name="path316"
       class="uuid-c7b81af3-68d9-4256-8713-5c701862f09f"
       d="M481.062,114.257l1.619-.25v3.048c.344-.571.962-.92,1.629-.919.92-.025,1.686.701,1.711,1.622.001.046,0,.091-.002.137v3.478h-1.619v-3.008c.055-.471-.282-.898-.753-.953-.035-.004-.07-.006-.106-.006-.339-.006-.66.154-.86.429v3.538h-1.619v-7.116Z" />
    <path
       id="uuid-3ef2195a-fbc8-4cef-8238-bbdd2854e029"
       data-name="path318"
       class="uuid-c7b81af3-68d9-4256-8713-5c701862f09f"
       d="M487.01,118.805c-.046-1.427,1.073-2.621,2.5-2.668.033-.001.067-.002.1-.001,1.398-.008,2.539,1.119,2.547,2.517,0,.071-.002.141-.008.212v.349h-3.549c.126.567.629.97,1.21.97.388.019.763-.139,1.02-.43l1.069.89c-.583.555-1.364.854-2.169.829-1.473.029-2.69-1.141-2.719-2.614,0-.018,0-.036,0-.054ZM490.648,118.295c-.087-.514-.528-.892-1.049-.9-.513.005-.941.391-1,.9h2.049Z" />
    <path
       id="uuid-4b5f7d64-4105-4b22-95c9-3d53bd8b3d65"
       data-name="path320"
       class="uuid-c7b81af3-68d9-4256-8713-5c701862f09f"
       d="M493.163,116.216h1.618v1.169c.33-.859.79-1.269,1.4-1.269.188-.004.374.041.54.13v1.389c-.238-.108-.497-.163-.759-.16-.475.003-.918.243-1.18.64v3.258h-1.618v-5.157Z" />
    <path
       id="uuid-df9a670b-fd67-4909-a84a-c623452614b5"
       data-name="path324"
       class="uuid-c7b81af3-68d9-4256-8713-5c701862f09f"
       d="M506.602,118.805c-.012-1.485,1.183-2.698,2.668-2.71,1.485-.012,2.698,1.183,2.71,2.668s-1.183,2.698-2.668,2.71c-.007,0-.014,0-.021,0-1.449.036-2.652-1.109-2.689-2.558,0-.037-.001-.073,0-.11ZM510.402,118.805c-.106-.613-.689-1.024-1.302-.918-.613.106-1.024.689-.918,1.302.093.54.562.934,1.11.934.651-.036,1.149-.592,1.114-1.243-.001-.025-.004-.05-.007-.075h.002Z" />
    <path
       id="uuid-94689348-2518-4b63-994a-111480983d64"
       data-name="path326"
       class="uuid-c7b81af3-68d9-4256-8713-5c701862f09f"
       d="M512.782,118.785c-.063-1.372.998-2.536,2.37-2.599.01,0,.02,0,.03-.001.529-.006,1.033.221,1.38.62v-2.549l1.619-.25v7.366h-1.6v-.67c-.375.45-.933.707-1.519.7-1.352-.094-2.372-1.265-2.28-2.617ZM516.56,119.654v-1.739c-.252-.259-.599-.404-.96-.4-.704.02-1.259.606-1.239,1.31.019.676.563,1.22,1.239,1.239.364.009.715-.14.96-.41Z" />
    <path
       id="uuid-3acf449c-1120-4e6c-9b11-a73d5b82531a"
       data-name="path330"
       class="uuid-c7b81af3-68d9-4256-8713-5c701862f09f"
       d="M519.322,120.844l.71-1.079c.497.317,1.07.496,1.659.52.459,0,.739-.161.739-.42,0-.2-.149-.31-.479-.37l-.989-.18c-1-.19-1.52-.7-1.52-1.5,0-1.049.81-1.679,2.159-1.679.74.006,1.465.21,2.1.59l-.74,1.029c-.445-.277-.956-.428-1.479-.439-.389,0-.62.13-.62.349s.13.3.53.37l.969.18c1.02.19,1.55.709,1.55,1.489-.11,1.09-1.084,1.884-2.174,1.774-.015-.002-.03-.003-.045-.005-.835.03-1.66-.189-2.37-.629Z" />
  </g>
  <g
     id="uuid-ba01b28e-f513-4fbf-aafe-04f76b76da31"
     data-name="g348">
    <path
       id="uuid-9d042d91-767e-45b2-afda-fc53037ca9b5"
       data-name="path338"
       class="uuid-c7b81af3-68d9-4256-8713-5c701862f09f"
       d="M199.376,298.577h1.619l3.108,4.238-.03-4.238h1.619v7h-1.518l-3.209-4.378.03,4.378h-1.619v-7Z" />
    <path
       id="uuid-9ad17581-e32c-44fb-aed0-865392181f12"
       data-name="path340"
       class="uuid-c7b81af3-68d9-4256-8713-5c701862f09f"
       d="M206.876,303.005c-.011-1.485,1.184-2.698,2.669-2.709,1.485-.011,2.698,1.184,2.709,2.669s-1.184,2.698-2.669,2.709c-.007,0-.014,0-.021,0-1.448.036-2.651-1.109-2.688-2.557,0-.037-.001-.075,0-.112ZM210.676,303.005c-.107-.613-.691-1.022-1.303-.915-.613.107-1.022.691-.915,1.303.094.539.562.932,1.108.932.651-.035,1.15-.591,1.115-1.242-.001-.026-.004-.052-.007-.078h.002Z" />
    <path
       id="uuid-e025b5b7-2bbc-41d3-a993-b68545871303"
       data-name="path342"
       class="uuid-c7b81af3-68d9-4256-8713-5c701862f09f"
       d="M213.056,302.985c-.064-1.371.996-2.535,2.368-2.599.011,0,.021,0,.032-.001.528-.006,1.032.22,1.379.619v-2.549l1.619-.25v7.367h-1.6v-.669c-.375.45-.933.707-1.519.7-1.351-.096-2.371-1.266-2.279-2.618ZM216.834,303.854v-1.738c-.251-.259-.598-.404-.959-.4-.704.02-1.259.606-1.239,1.31.019.676.563,1.22,1.239,1.239.364.009.714-.141.959-.411Z" />
    <path
       id="uuid-5d6a5813-a2ff-4e74-98a4-ae6296d3648d"
       data-name="path344"
       class="uuid-c7b81af3-68d9-4256-8713-5c701862f09f"
       d="M219.486,303.005c-.046-1.427,1.073-2.621,2.5-2.668.033-.001.067-.002.1-.001,1.398-.008,2.538,1.12,2.546,2.518,0,.07-.002.141-.008.211v.349h-3.548c.125.567.628.971,1.209.97.388.02.763-.139,1.019-.43l1.07.89c-.582.557-1.364.856-2.169.83-1.473.029-2.69-1.142-2.718-2.615,0-.018,0-.036,0-.055ZM223.124,302.495c-.088-.514-.529-.892-1.05-.9-.513.004-.942.39-1,.9h2.05Z" />
    <path
       id="uuid-c3a04196-59b7-4c89-a2f7-b2eef32ef5fc"
       data-name="path346"
       class="uuid-c7b81af3-68d9-4256-8713-5c701862f09f"
       d="M225.216,305.044l.71-1.078c.498.316,1.07.496,1.659.52.46,0,.739-.16.739-.42,0-.2-.149-.311-.48-.37l-.989-.181c-1-.189-1.519-.7-1.519-1.5,0-1.05.809-1.68,2.159-1.68.74.005,1.465.209,2.1.59l-.74,1.029c-.444-.276-.955-.428-1.478-.439-.39,0-.62.13-.62.35s.129.3.53.369l.969.18c1.019.191,1.549.71,1.549,1.49-.11,1.09-1.084,1.884-2.174,1.774-.015-.001-.029-.003-.044-.005-.835.03-1.661-.189-2.371-.629Z" />
  </g>
  <g
     id="uuid-a995f2fb-f446-488c-b013-799c66809e5d"
     data-name="g354">
    <polyline
       id="uuid-b2d384d4-b1b5-4dcf-ad40-e808f8ae6e3e"
       data-name="polyline350"
       class="uuid-734eb5e7-a9a2-4143-b9ae-fb0ffb59897b"
       points="382.762 61.879 382.762 83.155 255.218 83.155 255.218 99.049" />
    <polygon
       id="uuid-2b240e85-cc0c-424f-816c-fd35bbff45fc"
       data-name="polygon352"
       class="uuid-c7b81af3-68d9-4256-8713-5c701862f09f"
       points="251.479 97.955 255.218 104.431 258.958 97.955 251.479 97.955" />
  </g>
  <g
     id="uuid-37f48eae-66cb-45e5-bc80-575507441b73"
     data-name="g360">
    <polyline
       id="uuid-4390b56f-a8bd-4973-8fdb-06b540358e94"
       data-name="polyline356"
       class="uuid-734eb5e7-a9a2-4143-b9ae-fb0ffb59897b"
       points="382.762 61.879 382.762 83.155 510.354 83.155 510.354 99.049" />
    <polygon
       id="uuid-c831d097-5105-4df6-bb8b-cc419d4e5ed2"
       data-name="polygon358"
       class="uuid-c7b81af3-68d9-4256-8713-5c701862f09f"
       points="506.615 97.955 510.354 104.431 514.094 97.955 506.615 97.955" />
  </g>
  <g
     id="uuid-2184608b-0489-4990-97e9-d72e4a28a693"
     data-name="g368">
    <line
       id="uuid-4e5163bf-abc4-4b75-9667-8a556d0325de"
       data-name="line362"
       class="uuid-734eb5e7-a9a2-4143-b9ae-fb0ffb59897b"
       x1="334.945"
       y1="146.984"
       x2="303.192"
       y2="146.984" />
    <polygon
       id="uuid-bcbdce01-a1cc-412f-935e-769baf593fa2"
       data-name="polygon364"
       class="uuid-c7b81af3-68d9-4256-8713-5c701862f09f"
       points="333.851 143.244 340.328 146.984 333.851 150.724 333.851 143.244" />
    <polygon
       id="uuid-f506a58e-d714-45d5-a72f-dbebe6541988"
       data-name="polygon366"
       class="uuid-c7b81af3-68d9-4256-8713-5c701862f09f"
       points="304.286 143.244 297.81 146.984 304.286 150.724 304.286 143.244" />
  </g>
  <g
     id="uuid-8b99ea19-edd9-4885-82dc-5bca97b3ced3"
     data-name="g403">
    <path
       id="uuid-eccc8805-54f0-41dc-aeac-99fc2dc8d926"
       data-name="path373"
       class="uuid-c7b81af3-68d9-4256-8713-5c701862f09f"
       d="M28.801,302.076c.035-2.028,1.708-3.644,3.736-3.609,1.085.019,2.107.517,2.79,1.36l-1.159,1.1c-.37-.571-1-.919-1.68-.93-1.148.098-2,1.108-1.903,2.256.086,1.013.89,1.817,1.903,1.903.68-.011,1.31-.359,1.68-.93l1.159,1.1c-1.279,1.575-3.593,1.816-5.168.537-.841-.683-1.338-1.703-1.358-2.786h0Z" />
    <path
       id="uuid-412144db-d2d2-42c2-b387-17b37c0090d8"
       data-name="path375"
       class="uuid-c7b81af3-68d9-4256-8713-5c701862f09f"
       d="M36.18,298.457l1.619-.25v7.367h-1.619v-7.117Z" />
    <path
       id="uuid-a252afd4-9549-472e-89b1-fce0242bf256"
       data-name="path377"
       class="uuid-c7b81af3-68d9-4256-8713-5c701862f09f"
       d="M39.02,303.895v-3.479h1.619v3.008c-.056.471.281.898.752.954.036.004.072.006.108.006.339.005.66-.155.859-.43v-3.538h1.619v5.158h-1.619v-.839c-.345.57-.963.919-1.629.919-.92.025-1.686-.702-1.711-1.622-.001-.046,0-.091.002-.137Z" />
    <path
       id="uuid-5e72140f-f49a-4124-9b8d-8602856ac156"
       data-name="path379"
       class="uuid-c7b81af3-68d9-4256-8713-5c701862f09f"
       d="M44.82,305.044l.71-1.078c.498.316,1.07.496,1.659.52.459,0,.739-.16.739-.42,0-.2-.149-.311-.479-.37l-.989-.181c-1-.189-1.52-.7-1.52-1.5,0-1.05.81-1.68,2.159-1.68.74.006,1.465.21,2.1.59l-.74,1.029c-.445-.276-.956-.428-1.479-.439-.389,0-.62.13-.62.35s.13.3.53.369l.969.18c1.02.191,1.55.71,1.55,1.49-.11,1.09-1.084,1.884-2.174,1.774-.015-.002-.03-.003-.045-.005-.835.03-1.66-.189-2.37-.629Z" />
    <path
       id="uuid-b1c608de-72cf-4a44-8569-c5827205e475"
       data-name="path381"
       class="uuid-c7b81af3-68d9-4256-8713-5c701862f09f"
       d="M51.029,304.014v-2.348h-1v-1.25h1v-1.429l1.619-.329v1.758h1.38v1.25h-1.38v2.029c0,.46.181.62.68.62.224-.003.447-.04.66-.111v1.31c-.362.099-.734.153-1.109.16-1.22,0-1.85-.56-1.85-1.66Z" />
    <path
       id="uuid-6c62ced6-8e69-4002-8220-d2d2e675507e"
       data-name="path383"
       class="uuid-c7b81af3-68d9-4256-8713-5c701862f09f"
       d="M54.7,303.005c-.046-1.427,1.073-2.621,2.5-2.668.033-.001.067-.002.1-.001,1.398-.008,2.539,1.119,2.547,2.517,0,.071-.002.141-.008.212v.349h-3.55c.126.567.629.971,1.21.97.387.019.763-.139,1.019-.43l1.07.89c-.583.556-1.364.855-2.169.83-1.473.029-2.69-1.142-2.718-2.615,0-.018,0-.036,0-.055ZM58.338,302.495c-.088-.513-.528-.892-1.049-.9-.513.004-.942.39-1,.9h2.049Z" />
    <path
       id="uuid-e765d37e-8119-4e67-8874-0c7eb40997c6"
       data-name="path385"
       class="uuid-c7b81af3-68d9-4256-8713-5c701862f09f"
       d="M60.85,300.416h1.618v1.17c.331-.859.791-1.269,1.4-1.269.188-.004.374.041.54.13v1.389c-.238-.109-.498-.163-.76-.16-.475.004-.917.243-1.18.639v3.259h-1.618v-5.158Z" />
    <path
       id="uuid-72ad7cfe-74e4-45ba-8e7b-f963b3d97f6b"
       data-name="path387"
       class="uuid-c7b81af3-68d9-4256-8713-5c701862f09f"
       d="M67,305.044l.71-1.078c.498.316,1.07.496,1.659.52.459,0,.739-.16.739-.42,0-.2-.149-.311-.479-.37l-.99-.181c-1-.189-1.519-.7-1.519-1.5,0-1.05.809-1.68,2.159-1.68.74.006,1.465.21,2.1.59l-.741,1.029c-.444-.276-.955-.428-1.478-.439-.39,0-.62.13-.62.35s.13.3.53.369l.969.18c1.019.191,1.55.71,1.55,1.49-.111,1.091-1.085,1.885-2.176,1.774-.014-.001-.029-.003-.043-.005-.835.03-1.66-.189-2.37-.629Z" />
    <path
       id="uuid-6bc5067d-79d9-45a5-8939-1434d016f83e"
       data-name="path389"
       class="uuid-c7b81af3-68d9-4256-8713-5c701862f09f"
       d="M72.3,303.005c-.046-1.427,1.073-2.621,2.5-2.668.033-.001.067-.002.1-.001,1.398-.008,2.539,1.119,2.547,2.517,0,.071-.002.141-.008.212v.349h-3.551c.126.567.629.97,1.21.97.388.019.763-.139,1.02-.43l1.069.89c-.583.556-1.364.855-2.169.83-1.473.028-2.689-1.143-2.718-2.616,0-.018,0-.036,0-.053ZM75.937,302.495c-.087-.514-.528-.892-1.049-.9-.513.005-.941.391-1,.9h2.049Z" />
    <path
       id="uuid-3d8a1806-af50-405e-854f-03276e4742ad"
       data-name="path391"
       class="uuid-c7b81af3-68d9-4256-8713-5c701862f09f"
       d="M78.45,300.416h1.618v1.17c.33-.859.79-1.269,1.4-1.269.188-.004.375.041.541.13v1.389c-.238-.109-.498-.163-.76-.16-.475.003-.917.243-1.18.639v3.259h-1.619v-5.158Z" />
    <path
       id="uuid-11ecfee8-f307-4b17-96ce-6c6ea66c5db2"
       data-name="path393"
       class="uuid-c7b81af3-68d9-4256-8713-5c701862f09f"
       d="M82.31,300.416h1.76l1.169,3.239,1.18-3.239h1.669l-2.11,5.158h-1.58l-2.088-5.158Z" />
    <path
       id="uuid-74b198d2-b64f-4494-8425-c35e0ecad3a4"
       data-name="path395"
       class="uuid-c7b81af3-68d9-4256-8713-5c701862f09f"
       d="M88.689,298.717c0-.503.407-.91.91-.91s.91.407.91.91-.407.91-.91.91h0c-.502-.002-.908-.408-.909-.91ZM88.789,300.417h1.621v5.158h-1.62v-5.158Z" />
    <path
       id="uuid-afe13781-ad4e-46bb-9b23-7b6f5790add6"
       data-name="path397"
       class="uuid-c7b81af3-68d9-4256-8713-5c701862f09f"
       d="M91.439,303.005c-.025-1.45,1.131-2.645,2.58-2.669.03,0,.059,0,.089,0,.821-.015,1.607.333,2.149.95l-.99.99c-.254-.354-.664-.563-1.1-.561-.712.091-1.216.742-1.125,1.454.075.587.537,1.05,1.125,1.125.435.002.845-.206,1.1-.559l.99.989c-.542.617-1.328.965-2.149.95-1.45.025-2.644-1.131-2.669-2.58,0-.03,0-.059,0-.089Z" />
    <path
       id="uuid-253be6cf-8586-4b63-83d4-aca380bfc868"
       data-name="path399"
       class="uuid-c7b81af3-68d9-4256-8713-5c701862f09f"
       d="M96.829,303.005c-.046-1.427,1.073-2.621,2.5-2.668.033-.001.067-.002.1-.001,1.398-.009,2.539,1.118,2.548,2.516,0,.071-.002.142-.008.213v.349h-3.551c.126.567.629.971,1.21.97.387.019.763-.139,1.019-.43l1.07.89c-.583.556-1.364.855-2.169.83-1.473.029-2.69-1.142-2.718-2.615,0-.018,0-.036,0-.055ZM100.467,302.495c-.088-.513-.528-.892-1.049-.9-.513.004-.942.39-1,.9h2.049Z" />
    <path
       id="uuid-045b2f61-ec8b-4ff8-9bac-9d45245fb385"
       data-name="path401"
       class="uuid-c7b81af3-68d9-4256-8713-5c701862f09f"
       d="M102.559,305.044l.709-1.078c.498.316,1.07.496,1.659.52.46,0,.741-.16.741-.42,0-.2-.151-.311-.481-.37l-.989-.181c-1-.189-1.52-.7-1.52-1.5,0-1.05.81-1.68,2.16-1.68.74.005,1.465.209,2.1.59l-.739,1.029c-.445-.276-.956-.428-1.48-.439-.389,0-.619.13-.619.35s.13.3.53.369l.969.18c1.02.191,1.549.71,1.549,1.49-.11,1.09-1.084,1.884-2.174,1.774-.015-.002-.03-.003-.045-.005-.835.03-1.66-.189-2.37-.629Z" />
  </g>
  <g
     id="uuid-174d361a-00d8-49ac-a2f0-7da850418cf2"
     data-name="g439">
    <rect
       id="uuid-55b3ed9c-a5a0-4046-8b3b-9430dc80d0b6"
       data-name="rect435"
       class="uuid-7ea1e125-09ed-44ab-840c-e34b6a14b892"
       x="43.023"
       y="190.119"
       width="84.039"
       height="33.594" />
    <path
       id="uuid-aca49ec1-a80e-4e92-9979-a6aa41656d2a"
       data-name="path437"
       class="uuid-0433d4fa-df47-47ae-aa65-14cd4a96cde6"
       d="M126.563,190.733v32.366H43.523v-32.366h83.04M127.563,189.504H42.523v34.823h85.04v-34.823Z" />
  </g>
  <g
     id="uuid-f4d16ac3-d4bc-4976-ab69-588fcf50005b"
     data-name="Layer 4">
    <g
       id="uuid-22114987-83f1-4e24-8c9e-3db0a6207347"
       data-name="g482">
      <polyline
         id="uuid-48a959e5-9221-43e7-8973-699bf62155dd"
         data-name="polyline476"
         class="uuid-734eb5e7-a9a2-4143-b9ae-fb0ffb59897b"
         points="132.945 140.37 170.045 140.37 170.045 47.705 193.214 47.705" />
      <polygon
         id="uuid-175296c1-8369-4bf9-b576-af00d832a344"
         data-name="polygon478"
         class="uuid-c7b81af3-68d9-4256-8713-5c701862f09f"
         points="134.039 144.11 127.563 140.37 134.039 136.63 134.039 144.11" />
      <polygon
         id="uuid-d59cd0c0-b14b-4c0d-a716-8496067e283f"
         data-name="polygon480"
         class="uuid-c7b81af3-68d9-4256-8713-5c701862f09f"
         points="192.12 51.445 198.596 47.705 192.12 43.966 192.12 51.445" />
    </g>
    <g
       id="uuid-25e2af09-ce20-4639-85c2-cbc9da6d8715"
       data-name="g490">
      <line
         id="uuid-a9e736c8-6c75-4f09-b96b-d838867397c8"
         data-name="line484"
         class="uuid-734eb5e7-a9a2-4143-b9ae-fb0ffb59897b"
         x1="207.389"
         y1="153.598"
         x2="132.945"
         y2="153.598" />
      <polygon
         id="uuid-e0abdb36-de80-40b7-bd79-c14d7428ccd1"
         data-name="polygon486"
         class="uuid-c7b81af3-68d9-4256-8713-5c701862f09f"
         points="206.294 149.859 212.771 153.598 206.294 157.338 206.294 149.859" />
      <polygon
         id="uuid-23cbb113-42c2-48c2-afd2-41194cdd4b99"
         data-name="polygon488"
         class="uuid-c7b81af3-68d9-4256-8713-5c701862f09f"
         points="134.04 149.859 127.563 153.598 134.04 157.338 134.04 149.859" />
    </g>
  </g>
  <g
     id="uuid-b91d0cd1-690d-43ec-aa43-c3364f7b9e0d"
     data-name="Layer 3">
    <g
       id="uuid-f19bd8c7-fe2c-43a8-8ced-914901b3090c"
       data-name="g499">
      <line
         id="uuid-1acb6e42-dd82-4748-82d1-8c9c5b8d29a3"
         data-name="line493"
         class="uuid-734eb5e7-a9a2-4143-b9ae-fb0ffb59897b"
         x1="85.042"
         y1="184.121"
         x2="85.042"
         y2="166.539" />
      <polygon
         id="uuid-e9fcf789-0141-49bd-af0c-e1a75d129de5"
         data-name="polygon495"
         class="uuid-c7b81af3-68d9-4256-8713-5c701862f09f"
         points="88.782 183.027 85.042 189.504 81.302 183.027 88.782 183.027" />
      <polygon
         id="uuid-3ea4ffc0-b883-4716-b3dd-e947141f1def"
         data-name="polygon497"
         class="uuid-c7b81af3-68d9-4256-8713-5c701862f09f"
         points="88.782 167.634 85.042 161.157 81.302 167.634 88.782 167.634" />
    </g>
    <g
       id="uuid-0058ac37-d915-497e-b3ec-d4a95f478a64"
       data-name="g505">
      <line
         id="uuid-4888df59-fee7-4c7c-ae8d-fb0b1edfa674"
         data-name="line501"
         class="uuid-734eb5e7-a9a2-4143-b9ae-fb0ffb59897b"
         x1="85.042"
         y1="127.395"
         x2="85.042"
         y2="72.412" />
      <polygon
         id="uuid-f283c5b6-1237-4ade-86d1-3efc2554adb2"
         data-name="polygon503"
         class="uuid-c7b81af3-68d9-4256-8713-5c701862f09f"
         points="88.782 126.301 85.042 132.778 81.302 126.301 88.782 126.301" />
    </g>
  </g>
  <g
     id="uuid-b0929f20-784a-42b8-a7be-6c4b9d7a5dae"
     data-name="Layer 2">
    <g
       id="uuid-d9f0bca6-ee22-4887-ad63-5b72d3c78f3d"
       data-name="g512">
      <path
         id="uuid-c3f04c4f-6071-4f27-8e04-3db922c84980"
         data-name="path508"
         class="uuid-9fbee232-a6ed-43f0-9195-705fad50746f"
         d="M95.883,57.499c1.325-.766,2.132-2.189,2.11-3.72.052-2.447-1.889-4.472-4.336-4.524-2.447-.052-4.472,1.889-4.524,4.336-.001.063-.001.126,0,.188-.022,1.531.785,2.954,2.11,3.72-3.592,1.032-6.07,4.313-6.08,8.05.001.281.229.509.51.51h15.78c.276,0,.5-.224.5-.5,0-.003,0-.007,0-.01-.003-3.736-2.478-7.02-6.07-8.05ZM90.123,53.719v-.01c.002-1.9,1.543-3.439,3.443-3.437,1.897.002,3.435,1.539,3.437,3.437v.01c-.002,1.9-1.543,3.439-3.443,3.437-1.897-.002-3.435-1.539-3.437-3.437ZM86.203,65.049c.292-4.065,3.824-7.123,7.889-6.831,3.658.263,6.568,3.173,6.831,6.831h-14.72Z" />
      <path
         id="uuid-8ba9d922-c8b5-4635-a3a0-3ec8eed1c60d"
         data-name="path510"
         class="uuid-9fbee232-a6ed-43f0-9195-705fad50746f"
         d="M75.062,41.833c.365.002.729.037,1.088.106.287.055.574-.097.689-.366,1.728-3.991,6.363-5.826,10.354-4.098,2.883,1.248,4.749,4.091,4.746,7.233,0,.131-.01.259-.019.387l-.008.121c-.021.334.225.626.558.662,1.479.157,2.739,1.143,3.247,2.54.116.325.474.495.799.379.325-.116.495-.474.379-.799-.598-1.649-1.995-2.88-3.706-3.266v-.024c0-5.039-4.084-9.125-9.123-9.125-3.46,0-6.622,1.956-8.166,5.052-3.908-.456-7.446,2.343-7.902,6.25s2.343,7.446,6.25,7.902c.271.032.543.048.815.048h12.5c.345,0,.625-.28.625-.625s-.28-.625-.625-.625h-12.5c-3.245,0-5.875-2.63-5.875-5.875s2.63-5.875,5.875-5.875l-.002-.002Z" />
    </g>
  </g>
  <g
     id="g28">
    <path
       class="uuid-9fbee232-a6ed-43f0-9195-705fad50746f"
       d="M52.198,199.68h1.229l1.399,3.638,1.39-3.638h1.179l-2.059,5.007h-1.099l-2.039-5.007Z"
       id="path6" />
    <path
       class="uuid-9fbee232-a6ed-43f0-9195-705fad50746f"
       d="M58.068,197.97c0-.379.31-.699.7-.699.38,0,.7.32.7.699s-.32.69-.7.69c-.39,0-.7-.311-.7-.69ZM58.198,199.68h1.129v5.007h-1.129v-5.007Z"
       id="path7" />
    <path
       class="uuid-9fbee232-a6ed-43f0-9195-705fad50746f"
       d="M60.728,199.68h1.129v1.079c.28-.76.759-1.17,1.379-1.17.19.011.32.03.49.101v.989c-.18-.07-.41-.12-.62-.12-.549,0-.999.31-1.249.83v3.298h-1.129v-5.007Z"
       id="path8" />
    <path
       class="uuid-9fbee232-a6ed-43f0-9195-705fad50746f"
       d="M65.277,203.388v-2.809h-1v-.899h1v-1.38l1.129-.239v1.619h1.389v.899h-1.389v2.559c0,.489.19.68.7.68.22,0,.379-.03.68-.12v.949c-.29.09-.67.14-.97.14-1.009,0-1.539-.479-1.539-1.398Z"
       id="path9" />
    <path
       class="uuid-9fbee232-a6ed-43f0-9195-705fad50746f"
       d="M68.608,201.368h3.488v.96h-3.488v-.96Z"
       id="path10" />
    <path
       class="uuid-9fbee232-a6ed-43f0-9195-705fad50746f"
       d="M73.238,202.188c0-1.449,1.1-2.588,2.529-2.588.779,0,1.499.31,1.999.85l-.699.729c-.35-.39-.78-.59-1.259-.59-.81,0-1.439.699-1.439,1.599,0,.91.63,1.6,1.439,1.6.479,0,.909-.2,1.259-.58l.699.72c-.5.54-1.219.85-1.999.85-1.429,0-2.529-1.129-2.529-2.589Z"
       id="path11" />
    <path
       class="uuid-9fbee232-a6ed-43f0-9195-705fad50746f"
       d="M78.318,202.188c0-1.479,1.08-2.588,2.519-2.588,1.429,0,2.509,1.109,2.509,2.588s-1.08,2.589-2.509,2.589c-1.439,0-2.519-1.109-2.519-2.589ZM82.236,202.188c0-.929-.59-1.629-1.399-1.629-.819,0-1.409.7-1.409,1.629,0,.939.59,1.63,1.409,1.63.81,0,1.399-.69,1.399-1.63Z"
       id="path12" />
    <path
       class="uuid-9fbee232-a6ed-43f0-9195-705fad50746f"
       d="M84.517,199.68h1.129v.819c.38-.59.929-.899,1.579-.899,1.029,0,1.749.729,1.749,1.789v3.298h-1.14v-2.979c0-.729-.43-1.199-1.099-1.199-.46,0-.83.21-1.089.609v3.568h-1.129v-5.007Z"
       id="path13" />
    <path
       class="uuid-9fbee232-a6ed-43f0-9195-705fad50746f"
       d="M90.807,203.388v-2.809h-1v-.899h1v-1.38l1.129-.239v1.619h1.389v.899h-1.389v2.559c0,.489.19.68.7.68.22,0,.379-.03.68-.12v.949c-.29.09-.67.14-.97.14-1.009,0-1.539-.479-1.539-1.398Z"
       id="path14" />
    <path
       class="uuid-9fbee232-a6ed-43f0-9195-705fad50746f"
       d="M94.327,199.68h1.129v1.079c.28-.76.759-1.17,1.379-1.17.19.011.32.03.49.101v.989c-.18-.07-.41-.12-.62-.12-.549,0-1,.31-1.249.83v3.298h-1.129v-5.007Z"
       id="path15" />
    <path
       class="uuid-9fbee232-a6ed-43f0-9195-705fad50746f"
       d="M97.797,202.188c0-1.479,1.08-2.588,2.519-2.588,1.429,0,2.509,1.109,2.509,2.588s-1.08,2.589-2.509,2.589c-1.439,0-2.519-1.109-2.519-2.589ZM101.715,202.188c0-.929-.59-1.629-1.399-1.629-.819,0-1.409.7-1.409,1.629,0,.939.59,1.63,1.409,1.63.81,0,1.399-.69,1.399-1.63Z"
       id="path16" />
    <path
       class="uuid-9fbee232-a6ed-43f0-9195-705fad50746f"
       d="M103.997,197.521l1.129-.2v7.366h-1.129v-7.166Z"
       id="path17" />
    <path
       class="uuid-9fbee232-a6ed-43f0-9195-705fad50746f"
       d="M106.517,197.521l1.129-.2v7.366h-1.129v-7.166Z"
       id="path18" />
    <path
       class="uuid-9fbee232-a6ed-43f0-9195-705fad50746f"
       d="M108.807,202.188c0-1.469,1.06-2.588,2.438-2.588,1.37,0,2.369,1.089,2.369,2.588v.271h-3.698c.11.81.72,1.399,1.499,1.399.47,0,.91-.181,1.189-.47l.74.669c-.61.51-1.219.729-1.979.729-1.439,0-2.559-1.129-2.559-2.599ZM112.545,201.758c-.12-.729-.64-1.239-1.309-1.239-.68,0-1.179.49-1.309,1.239h2.618Z"
       id="path19" />
    <path
       class="uuid-9fbee232-a6ed-43f0-9195-705fad50746f"
       d="M114.767,199.68h1.129v1.079c.28-.76.759-1.17,1.379-1.17.19.011.32.03.49.101v.989c-.18-.07-.41-.12-.62-.12-.549,0-.999.31-1.249.83v3.298h-1.129v-5.007Z"
       id="path20" />
    <path
       class="uuid-9fbee232-a6ed-43f0-9195-705fad50746f"
       d="M65.063,212.188c0-1.479,1.08-2.588,2.519-2.588,1.429,0,2.509,1.109,2.509,2.588s-1.08,2.589-2.509,2.589c-1.439,0-2.519-1.109-2.519-2.589ZM68.981,212.188c0-.929-.59-1.629-1.399-1.629-.819,0-1.409.7-1.409,1.629,0,.939.59,1.63,1.409,1.63.81,0,1.399-.69,1.399-1.63Z"
       id="path21" />
    <path
       class="uuid-9fbee232-a6ed-43f0-9195-705fad50746f"
       d="M71.262,209.68h1.109v.709c.36-.47.919-.749,1.559-.749,1.269,0,2.259,1.129,2.259,2.548,0,1.43-1.02,2.549-2.329,2.549-.59,0-1.109-.22-1.469-.64v2.679h-1.129v-7.096ZM75.08,212.188c0-.909-.64-1.599-1.489-1.599-.5,0-.91.2-1.199.56v2.089c.29.35.72.56,1.199.56.859,0,1.489-.689,1.489-1.609Z"
       id="path22" />
    <path
       class="uuid-9fbee232-a6ed-43f0-9195-705fad50746f"
       d="M77.142,212.188c0-1.469,1.06-2.588,2.438-2.588,1.37,0,2.369,1.089,2.369,2.588v.271h-3.698c.11.81.72,1.399,1.499,1.399.47,0,.91-.181,1.189-.47l.74.669c-.61.51-1.219.729-1.979.729-1.439,0-2.559-1.129-2.559-2.599ZM80.88,211.758c-.12-.729-.64-1.239-1.309-1.239-.68,0-1.179.49-1.309,1.239h2.618Z"
       id="path23" />
    <path
       class="uuid-9fbee232-a6ed-43f0-9195-705fad50746f"
       d="M83.102,209.68h1.129v1.079c.28-.76.759-1.17,1.379-1.17.19.011.32.03.49.101v.989c-.18-.07-.41-.12-.62-.12-.549,0-1,.31-1.249.83v3.298h-1.129v-5.007Z"
       id="path24" />
    <path
       class="uuid-9fbee232-a6ed-43f0-9195-705fad50746f"
       d="M86.623,213.247c0-.899.739-1.469,1.919-1.469.47,0,.909.1,1.349.319v-.56c0-.659-.38-.999-1.149-.999-.42,0-.879.12-1.459.39l-.4-.819c.75-.34,1.409-.51,2.079-.51,1.31,0,2.049.659,2.049,1.818v3.269h-1.119v-.52c-.43.42-.91.609-1.489.609-1.049,0-1.779-.63-1.779-1.529ZM88.712,213.977c.45,0,.839-.13,1.179-.419v-.81c-.36-.17-.72-.24-1.149-.24-.649,0-1.06.27-1.06.72,0,.46.4.749,1.03.749Z"
       id="path25" />
    <path
       class="uuid-9fbee232-a6ed-43f0-9195-705fad50746f"
       d="M92.852,213.388v-2.809h-1v-.899h1v-1.38l1.129-.239v1.619h1.389v.899h-1.389v2.559c0,.489.19.68.7.68.22,0,.379-.03.68-.12v.949c-.29.09-.67.14-.97.14-1.009,0-1.539-.479-1.539-1.398Z"
       id="path26" />
    <path
       class="uuid-9fbee232-a6ed-43f0-9195-705fad50746f"
       d="M96.062,212.188c0-1.479,1.08-2.588,2.519-2.588,1.429,0,2.509,1.109,2.509,2.588s-1.08,2.589-2.509,2.589c-1.439,0-2.519-1.109-2.519-2.589ZM99.98,212.188c0-.929-.59-1.629-1.399-1.629-.819,0-1.409.7-1.409,1.629,0,.939.59,1.63,1.409,1.63.81,0,1.399-.69,1.399-1.63Z"
       id="path27" />
    <path
       class="uuid-9fbee232-a6ed-43f0-9195-705fad50746f"
       d="M102.262,209.68h1.129v1.079c.28-.76.759-1.17,1.379-1.17.19.011.32.03.49.101v.989c-.18-.07-.41-.12-.62-.12-.549,0-.999.31-1.249.83v3.298h-1.129v-5.007Z"
       id="path28" />
  </g>
  <g
     id="g37">
    <path
       class="uuid-9fbee232-a6ed-43f0-9195-705fad50746f"
       d="M63.667,142.759h1.389l2.708,6.996h-1.29l-.719-1.959h-2.869l-.72,1.959h-1.249l2.749-6.996ZM65.426,146.857l-1.099-2.958-1.089,2.958h2.188Z"
       id="path29" />
    <path
       class="uuid-9fbee232-a6ed-43f0-9195-705fad50746f"
       d="M68.667,142.759h3.128c1.419,0,2.339.89,2.339,2.179,0,1.26-.919,2.148-2.339,2.148h-1.929v2.669h-1.2v-6.996ZM71.606,146.107c.85,0,1.319-.47,1.319-1.179,0-.689-.47-1.159-1.309-1.159h-1.749v2.338h1.739Z"
       id="path30" />
    <path
       class="uuid-9fbee232-a6ed-43f0-9195-705fad50746f"
       d="M75.408,142.759h1.199v6.996h-1.199v-6.996Z"
       id="path31" />
    <path
       class="uuid-9fbee232-a6ed-43f0-9195-705fad50746f"
       d="M79.898,149.175l.53-.749c.659.409,1.099.569,1.609.569.6,0,1.009-.279,1.009-.68,0-.31-.209-.47-.699-.569l-.88-.15c-.979-.18-1.449-.629-1.449-1.379,0-.939.77-1.549,1.939-1.549.7,0,1.33.199,1.969.6l-.53.749c-.51-.329-1-.479-1.509-.479-.52,0-.859.22-.859.58,0,.319.18.459.699.55l.89.17c1,.18,1.479.64,1.479,1.389,0,.92-.88,1.629-2.049,1.629-.86,0-1.619-.239-2.149-.68Z"
       id="path32" />
    <path
       class="uuid-9fbee232-a6ed-43f0-9195-705fad50746f"
       d="M84.957,147.256c0-1.469,1.06-2.588,2.438-2.588,1.37,0,2.369,1.089,2.369,2.588v.271h-3.698c.11.81.72,1.399,1.499,1.399.47,0,.91-.181,1.189-.47l.74.669c-.61.51-1.219.729-1.979.729-1.439,0-2.559-1.129-2.559-2.599ZM88.695,146.826c-.12-.729-.64-1.239-1.309-1.239-.68,0-1.179.49-1.309,1.239h2.618Z"
       id="path33" />
    <path
       class="uuid-9fbee232-a6ed-43f0-9195-705fad50746f"
       d="M90.917,144.748h1.129v1.079c.28-.76.759-1.17,1.379-1.17.19.011.32.03.49.101v.989c-.18-.07-.41-.12-.62-.12-.549,0-.999.31-1.249.83v3.298h-1.129v-5.007Z"
       id="path34" />
    <path
       class="uuid-9fbee232-a6ed-43f0-9195-705fad50746f"
       d="M94.408,144.748h1.229l1.399,3.638,1.39-3.638h1.179l-2.059,5.007h-1.099l-2.039-5.007Z"
       id="path35" />
    <path
       class="uuid-9fbee232-a6ed-43f0-9195-705fad50746f"
       d="M100.037,147.256c0-1.469,1.06-2.588,2.438-2.588,1.37,0,2.369,1.089,2.369,2.588v.271h-3.698c.11.81.72,1.399,1.499,1.399.47,0,.91-.181,1.189-.47l.74.669c-.61.51-1.219.729-1.979.729-1.439,0-2.559-1.129-2.559-2.599ZM103.775,146.826c-.12-.729-.64-1.239-1.309-1.239-.68,0-1.179.49-1.309,1.239h2.618Z"
       id="path36" />
    <path
       class="uuid-9fbee232-a6ed-43f0-9195-705fad50746f"
       d="M105.997,144.748h1.129v1.079c.28-.76.759-1.17,1.379-1.17.19.011.32.03.49.101v.989c-.18-.07-.41-.12-.62-.12-.549,0-.999.31-1.249.83v3.298h-1.129v-5.007Z"
       id="path37" />
  </g>
  <g
     id="g41">
    <rect
       class="uuid-c1e42026-d7e6-4069-b182-e910ca88404c"
       x="198.597"
       y="33.532"
       width="368.324"
       height="28.347"
       id="rect37" />
    <g
       id="g40">
      <polyline
         class="uuid-47b835e3-f73e-4b56-a820-148effc37007"
         points="566.921 60.379 566.921 61.879 565.421 61.879"
         id="polyline37" />
      <line
         class="uuid-28990999-d204-4094-ad95-e0a4ddd3deb6"
         x1="562.402"
         y1="61.879"
         x2="201.606"
         y2="61.879"
         id="line37" />
      <polyline
         class="uuid-47b835e3-f73e-4b56-a820-148effc37007"
         points="200.097 61.879 198.597 61.879 198.597 60.379"
         id="polyline38" />
      <line
         class="uuid-4427e8ae-2d69-4269-993d-4b45bb9f54f9"
         x1="198.597"
         y1="57.563"
         x2="198.597"
         y2="36.441"
         id="line38" />
      <polyline
         class="uuid-47b835e3-f73e-4b56-a820-148effc37007"
         points="198.597 35.032 198.597 33.532 200.097 33.532"
         id="polyline39" />
      <line
         class="uuid-28990999-d204-4094-ad95-e0a4ddd3deb6"
         x1="203.116"
         y1="33.532"
         x2="563.911"
         y2="33.532"
         id="line39" />
      <polyline
         class="uuid-47b835e3-f73e-4b56-a820-148effc37007"
         points="565.421 33.532 566.921 33.532 566.921 35.032"
         id="polyline40" />
      <line
         class="uuid-4427e8ae-2d69-4269-993d-4b45bb9f54f9"
         x1="566.921"
         y1="37.849"
         x2="566.921"
         y2="58.971"
         id="line40" />
    </g>
  </g>
  <g
     id="g47">
    <path
       class="uuid-9fbee232-a6ed-43f0-9195-705fad50746f"
       d="M365.879,43.289l1.129-.189v4.497l2.079-2.128h1.299l-2.309,2.318,2.429,2.688h-1.439l-2.059-2.309v2.309h-1.129v-7.187Z"
       id="path41" />
    <path
       class="uuid-9fbee232-a6ed-43f0-9195-705fad50746f"
       d="M371.099,48.767v-3.298h1.139v2.968c0,.74.431,1.21,1.1,1.21.45,0,.83-.2,1.09-.601v-3.577h1.129v5.007h-1.129v-.81c-.38.59-.92.89-1.589.89-1.02,0-1.739-.739-1.739-1.789Z"
       id="path42" />
    <path
       class="uuid-9fbee232-a6ed-43f0-9195-705fad50746f"
       d="M376.958,43.34l1.13-.19v2.988c.35-.439.909-.709,1.539-.709,1.27,0,2.259,1.129,2.259,2.548,0,1.43-1.02,2.549-2.329,2.549-.59,0-1.109-.239-1.489-.689v.64h-1.109v-7.136ZM380.777,47.977c0-.909-.64-1.599-1.489-1.599-.5,0-.91.2-1.199.56v2.089c.289.35.72.56,1.199.56.859,0,1.489-.689,1.489-1.609Z"
       id="path43" />
    <path
       class="uuid-9fbee232-a6ed-43f0-9195-705fad50746f"
       d="M382.838,47.977c0-1.469,1.06-2.588,2.438-2.588,1.37,0,2.369,1.089,2.369,2.588v.271h-3.698c.11.81.72,1.399,1.499,1.399.47,0,.91-.181,1.189-.47l.74.669c-.61.51-1.22.729-1.979.729-1.438,0-2.559-1.129-2.559-2.599ZM386.576,47.547c-.12-.729-.64-1.239-1.31-1.239-.68,0-1.179.49-1.309,1.239h2.618Z"
       id="path44" />
    <path
       class="uuid-9fbee232-a6ed-43f0-9195-705fad50746f"
       d="M388.798,43.31l1.13-.2v7.366h-1.13v-7.166Z"
       id="path45" />
    <path
       class="uuid-9fbee232-a6ed-43f0-9195-705fad50746f"
       d="M391.088,47.977c0-1.469,1.06-2.588,2.438-2.588,1.37,0,2.369,1.089,2.369,2.588v.271h-3.698c.11.81.72,1.399,1.499,1.399.47,0,.91-.181,1.189-.47l.74.669c-.61.51-1.22.729-1.979.729-1.438,0-2.559-1.129-2.559-2.599ZM394.826,47.547c-.12-.729-.64-1.239-1.31-1.239-.68,0-1.179.49-1.309,1.239h2.618Z"
       id="path46" />
    <path
       class="uuid-9fbee232-a6ed-43f0-9195-705fad50746f"
       d="M397.518,49.177v-2.809h-.999v-.899h.999v-1.38l1.13-.239v1.619h1.389v.899h-1.389v2.559c0,.489.189.68.699.68.22,0,.38-.03.68-.12v.949c-.29.09-.67.14-.97.14-1.009,0-1.539-.479-1.539-1.398Z"
       id="path47" />
  </g>
  <path
     class="uuid-9fbee232-a6ed-43f0-9195-705fad50746f"
     d="M360.381,116.301h1.599v.72c.34-.46.91-.75,1.529-.75,1.27,0,2.279,1.169,2.279,2.619s-1.06,2.598-2.399,2.598c-.56,0-1.049-.209-1.389-.6v2.659h-1.619v-7.246ZM364.199,118.88c0-.729-.529-1.269-1.229-1.269-.399,0-.709.14-.969.419v1.719c.25.26.59.41.969.41.71,0,1.229-.54,1.229-1.279Z"
     id="path48" />
  <path
     class="uuid-9fbee232-a6ed-43f0-9195-705fad50746f"
     d="M500.412,116.301h1.599v.72c.34-.46.91-.75,1.529-.75,1.27,0,2.279,1.169,2.279,2.619s-1.06,2.598-2.399,2.598c-.56,0-1.049-.209-1.389-.6v2.659h-1.619v-7.246ZM504.23,118.88c0-.729-.529-1.269-1.229-1.269-.399,0-.709.14-.969.419v1.719c.25.26.59.41.969.41.71,0,1.229-.54,1.229-1.279Z"
     id="path49" />
  <metadata
     id="metadata49">
    <rdf:RDF>
      <cc:Work
         rdf:about="">
        <dc:subject>
          <rdf:Bag>
            <rdf:li>Virtualization</rdf:li>
            <rdf:li>Architecture</rdf:li>
            <rdf:li>Overview</rdf:li>
          </rdf:Bag>
        </dc:subject>
      </cc:Work>
    </rdf:RDF>
  </metadata>
</svg>
